<ttFont>
<head>
    <!-- Most of this table will be recalculated by the compiler -->
    <tableVersion value="1.0"/>
    <fontRevision value="1.0"/>
    <checkSumAdjustment value="0x405d76ce"/>
    <magicNumber value="0x5f0f3cf5"/>
    <flags value="00000000 00000011"/>
    <unitsPerEm value="2048"/>
    <created value="Tue May 30 14:30:01 2017"/>
    <modified value="Wed May 31 02:54:11 2017"/>
    <xMin value="-456"/>
    <yMin value="-494"/>
    <xMax value="2605"/>
    <yMax value="2062"/>
<macStyle value="00000000 00000010"/>
    <lowestRecPPEM value="3"/>
    <fontDirectionHint value="2"/>
    <indexToLocFormat value="0"/>
    <glyphDataFormat value="0"/>
  </head>
          <CharString index="0">
            rmoveto
            273 51 155 119 203 96 callgsubr
            -232 56 callgsubr
            -45 hvcurveto
            -39 -219 rlineto
            -266 -47 -144 -142 -222 hhcurveto
            -241 -145 153 238 64 6 45 9 49 hvcurveto
            -151 15 rmoveto
            -11 -66 -3 -69 -61 vvcurveto
            -324 227 106 callsubr
            190 -15 callgsubr
            vhcurveto
            40 217 39 callgsubr
            64 41 vvcurveto
            335 -221 195 -312 -283 -222 -183 -322 -58 vhcurveto
            return
          </CharString>
          <CharString index="1">
            rmoveto
            233 148 143 128 24 hvcurveto
            -41 callgsubr
            -72 -21 -89 -70 -140 hhcurveto
            -194 -73 135 144 36 5 39 6 23 hvcurveto
            695 hlineto
            2 10 23 127 4 vvcurveto
            193 30 -95 241 -309 hhcurveto
            -241 -171 -147 -234 -41 hvcurveto
            -27 -148 rlineto
            -7 -37 -9 -62 -59 vvcurveto
            -257 168 -137 229 vhcurveto
            330 624 rmoveto
            -553 hlineto
            2 14 66 2 vvcurveto
            179 38 125 84 140 hhcurveto
            183 85 -138 -169 -28 hvcurveto
            -5 -3 -18 -1 -3 vhcurveto
            return
          </CharString>
          <CharString index="2">
            1047 -104 callgsubr
            return
          </CharString>
          <CharString index="3">
            220 518 -10 callsubr
            -152 hlineto
            -143 -815 rlineto
            -6 -34 -7 -52 -53 vvcurveto
            -278 202 -162 280 262 203 143 313 56 vhcurveto
            165 938 rlineto
            -151 hlineto
            -164 -928 rlineto
            -219 -39 -145 -107 -185 hhcurveto
            -204 -126 128 194 37 5 47 3 17 hvcurveto
            return
          </CharString>
          <CharString index="4">
            hmoveto
            161 hlineto
            222 428 rlineto
            527 hlineto
            71 -428 rlineto
            152 hlineto
            -247 1365 100 callgsubr
            56 -183 rmoveto
            104 -632 68 callgsubr
            326 632 rlineto
            return
          </CharString>
          <CharString index="5">
            rmoveto
            -194 -186 -116 -268 -51 hvcurveto
            -23 -122 rlineto
            -8 -40 -6 -67 -36 vvcurveto
            -247 183 -149 194 165 99 85 92 38 vhcurveto
            12 hlineto
            -27 -153 rlineto
            -201 -35 -100 -97 -189 hhcurveto
            -156 -101 88 83 hvcurveto
            2 0 10 1 vvcurveto
            -143 hlineto
            -1 -1 -12 -2 vvcurveto
            -153 152 -141 240 264 157 126 271 48 vhcurveto
            181 1030 rlineto
            -144 hlineto
            -36 -206 rlineto
            -12 hlineto
            115 -31 -111 108 -179 hhcurveto
            288 -421 rmoveto
            -9 0 -30 -10 -56 vhcurveto
            -19 -107 rlineto
            -175 -30 -120 -124 -155 hhcurveto
            -167 -111 100 195 27 7 55 5 29 hvcurveto
            17 87 rlineto
            190 35 111 115 156 hhcurveto
            162 119 -113 -184 hvcurveto
            return
          </CharString>
          <CharString index="6">
            rmoveto
            55 45 42 55 54 -45 42 -55 -55 -45 -42 -54 -26 callsubr
            348 hmoveto
            55 45 42 55 54 -45 42 -55 -55 -46 -42 -54 -55 46 -42 55 hvcurveto
            endchar
          </CharString>
          <CharString index="7">
            rmoveto
            -247 -148 -160 -206 -39 hvcurveto
            -37 -196 rlineto
            -8 -38 -2 -46 -39 vvcurveto
            -239 158 -155 218 175 100 111 81 30 vhcurveto
            -52 callgsubr
            255 131 callsubr
            -148 hlineto
            -104 -596 rlineto
            -12 hlineto
            97 -18 -114 126 -183 hhcurveto
            287 -428 rmoveto
            -9 -2 -17 -4 -25 vhcurveto
            -28 -163 rlineto
            -179 -32 -114 -129 -169 hhcurveto
            -167 -106 108 179 35 3 38 3 18 hvcurveto
            31 156 rlineto
            166 33 101 125 170 hhcurveto
            136 145 -98 -205 hvcurveto
            return
          </CharString>
          <CharString index="8">
            rmoveto
            -57 41 -38 57 58 41 38 57 56 -41 40 -58 -57 -41 -40 -56 vhcurveto
            return
          </CharString>
          <CharString index="9" raw="1">
            15f95ca8 1dfd5c06 fb851cfa abe81da2
            f71505fd 5c06f82b fb154e1d 
          </CharString>
          <CharString index="10">
            387 21 callgsubr
            367 hlineto
            439 244 184 364 66 hvcurveto
            1 4 25 143 1 6 rrcurveto
            8 52 3 63 38 vvcurveto
            305 -182 206 -362 vhcurveto
            -244 -132 rmoveto
            203 hlineto
            291 144 -139 -256 -36 -3 -62 -7 -39 hvcurveto
            -6 -24 -128 -4 vvcurveto
            -290 -54 -218 -141 -329 hhcurveto
            -196 hlineto
            return
          </CharString>
          <CharString index="11">
            -99 callsubr
            endchar
          </CharString>
          <CharString index="12">
            rmoveto
            114 72 110 115 9 hvcurveto
            -103 hlineto
            -74 -9 -31 -48 -50 -82 -5 156 -160 hhcurveto
            -112 -73 -95 -130 -11 hvcurveto
            103 hlineto
            75 8 27 47 55 89 4 -156 155 hhcurveto
            return
          </CharString>
          <CharString index="13">
            562 -17 rmoveto
            260 153 148 callgsubr
            7 44 4 49 30 vvcurveto
            119 -43 100 -42 51 vhcurveto
            3 8 155 2 52 103 29 163 rlinecurve
            25 138 145 callsubr
            -27 -150 rlineto
            -99 -18 -50 -61 -101 -94 -64 44 -117 hhcurveto
            -221 -179 -142 -252 -44 hvcurveto
            -25 -142 rlineto
            -8 95 callgsubr
            177 -149 232 vhcurveto
            -233 130 callgsubr
            36 119 89 146 hhcurveto
            173 95 callsubr
            0 -50 -5 -32 hvcurveto
            -23 -133 rlineto
            -196 -35 -107 -110 -161 hhcurveto
            -177 -107 120 175 46 4 39 callsubr
            return
          </CharString>
          <CharString index="14">
            864 rmoveto
            252 50 138 140 215 hhcurveto
            191 134 -123 -148 14 hvcurveto
            1 -8 0 -9 -1 -12 rrcurveto
            144 hlineto
            1 5 1 12 17 vvcurveto
            219 -198 185 -284 -290 -202 -191 -311 -60 vhcurveto
            -49 -251 rlineto
            -5 -29 -4 -68 -55 vvcurveto
            -317 194 -201 310 247 203 137 203 44 vhcurveto
            4 15 3 21 7 vvcurveto
            -147 hlineto
            -149 -32 -133 -97 -178 hhcurveto
            -230 -136 145 241 43 7 84 6 32 hvcurveto
            return
          </CharString>
          <CharString index="15">
            1206 -17 rmoveto
            220 157 141 130 23 hvcurveto
            -41 callgsubr
            -74 -22 -91 -68 -137 hhcurveto
            -193 -73 134 145 15 -1 17 12 66 hvcurveto
            695 hlineto
            2 8 22 128 5 vvcurveto
            190 29 -91 244 -312 hhcurveto
            -148 -122 -56 -100 -83 hvcurveto
            0 vlineto
            95 -53 -108 61 -161 hhcurveto
            -213 -148 -107 -153 -28 hvcurveto
            142 hlineto
            73 24 78 63 134 hhcurveto
            176 61 -107 -97 -18 -2 -22 -2 -12 hvcurveto
            -14 -76 rlineto
            -286 hlineto
            -270 -156 -118 -210 -188 127 -109 209 212 120 115 127 61 hvcurveto
            0 vlineto
            -157 51 135 -85 170 hhcurveto
            -938 305 rmoveto
            107 81 97 182 106 callgsubr
            -142 -28 -130 -102 -154 hhcurveto
            -131 -73 75 101 hvcurveto
            1263 319 rmoveto
            -556 hlineto
            1 5 1 6 13 59 rrcurveto
            182 38 128 81 140 hhcurveto
            182 84 117 callgsubr
            -3 -19 -1 -3 vhcurveto
            return
          </CharString>
          <CharString index="16">
            62 callgsubr
            194 150 rlineto
            10 hlineto
            139 -150 rlineto
            150 hlineto
            -216 229 rlineto
            -141 hlineto
            return
          </CharString>
          <CharString index="17">
            712 1178 -29 rmoveto
            322 187 117 callsubr
            39 218 39 callgsubr
            63 42 vvcurveto
            335 -216 194 -307 -278 -217 -182 -322 -57 vhcurveto
            -21 -115 rlineto
            -263 -38 callgsubr
            149 hlineto
            114 644 rlineto
            263 hlineto
            -5 -2 -15 -1 -5 vhcurveto
            -5 -48 -2 -49 -45 vvcurveto
            -324 223 -182 283 vhcurveto
            -303 894 rmoveto
            273 51 150 118 198 hhcurveto
            229 145 37 callgsubr
            -139 -142 -216 hhcurveto
            -235 -142 153 238 64 6 45 9 49 hvcurveto
            return
          </CharString>
          <CharString index="18">
            -97 498 -17 rmoveto
            232 168 132 249 43 hvcurveto
            26 151 rlineto
            9 53 5 56 40 vvcurveto
            245 -162 155 -244 -207 -154 -110 -165 -30 vhcurveto
            147 hlineto
            78 19 85 68 134 hhcurveto
            174 92 -113 -190 -13 0 -13 -2 -13 hvcurveto
            -455 hlineto
            -21 -121 rlineto
            459 hlineto
            -13 -69 rlineto
            -190 -33 -118 -106 -154 hhcurveto
            -162 -84 109 95 hvcurveto
            1 0 10 1 vvcurveto
            -142 hlineto
            -1 -1 -11 -2 vvcurveto
            -174 143 -152 246 vhcurveto
            return
          </CharString>
          <CharString index="19">
            1170 30 callsubr
            -199 -1121 rlineto
            -9 hlineto
            -520 1121 -37 callsubr
            197 1118 rlineto
            9 hlineto
            525 -1118 rlineto
            return
          </CharString>
          <CharString index="20">
            114 644 rlineto
            716 hlineto
            -113 -644 rlineto
            148 -20 callgsubr
            -149 hlineto
            -104 -590 rlineto
            -716 -38 callgsubr
            return
          </CharString>
          <CharString index="21">
            321 692 -29 rmoveto
            262 203 143 313 56 hvcurveto
            147 832 rlineto
            28 hlineto
            164 95 112 156 27 hvcurveto
            16 95 rlineto
            -130 hlineto
            -17 -97 rlineto
            -94 -17 -44 -66 -108 hhcurveto
            -147 -14 callsubr
            146 831 rlineto
            -151 hlineto
            -143 -815 rlineto
            -6 -34 -7 -52 -53 vvcurveto
            -278 202 -162 280 vhcurveto
            return
          </CharString>
          <CharString index="22">
            rmoveto
            107 69 96 100 8 hvcurveto
            -102 hlineto
            -65 -9 -28 -40 -45 -76 -10 120 -147 hhcurveto
            -103 -70 -83 -114 -12 hvcurveto
            103 hlineto
            65 8 25 40 49 83 9 -119 141 hhcurveto
            return
          </CharString>
          <CharString index="23">
            rmoveto
            -166 hlineto
            -22 -121 rlineto
            167 hlineto
            -107 -606 rlineto
            38 callsubr
            83 -65 165 103 callgsubr
            78 callgsubr
            -30 -55 -5 -44 hhcurveto
            -91 -40 33 75 30 5 33 16 92 hvcurveto
            96 549 rlineto
            237 hlineto
            22 121 rlineto
            -237 hlineto
            45 262 rlineto
            -144 hlineto
            return
          </CharString>
          <CharString index="24">
            rmoveto
            157 hlineto
            177 108 -96 -150 -175 -118 -122 -199 -201 -118 116 108 6 1 5 1 8 hvcurveto
            -141 hlineto
            -2 -10 -2 -15 -17 vvcurveto
            -167 163 -165 293 272 201 164 257 151 -97 125 -155 34 vhcurveto
            2 12 rlineto
            136 11 168 110 211 vvcurveto
            234 -193 114 -220 -259 -138 -143 -158 -28 vhcurveto
            144 hlineto
            81 22 81 89 176 hhcurveto
            157 117 -79 -146 -157 -117 -97 -196 hvcurveto
            -168 hlineto
            return
          </CharString>
          <CharString index="25">
            rmoveto
            -135 -24 89 -119 206 hhcurveto
            221 109 114 140 24 hvcurveto
            -109 hlineto
            -97 -17 -79 112 callsubr
            -136 -56 68 97 17 hvcurveto
            return
          </CharString>
          <CharString index="26">
            rmoveto
            38 callsubr
            81 -65 156 49 57 6 7 25 78 callgsubr
            -27 -47 -5 -45 hhcurveto
            -81 -39 33 75 30 5 33 16 92 hvcurveto
            189 1060 85 callsubr
          </CharString>
          <CharString index="27">
            hmoveto
            484 hlineto
            349 200 159 250 175 -98 99 -146 28 hvcurveto
            2 9 rlineto
            139 33 134 126 181 vvcurveto
            147 -91 158 -293 vhcurveto
            -440 hlineto
            125 -132 rmoveto
            271 hlineto
            192 79 -70 -125 -173 -148 -95 -184 hvcurveto
            -292 144 callsubr
            rmoveto
            304 hlineto
            228 90 -97 -133 -183 -169 -94 -213 hvcurveto
            -329 hlineto
            return
          </CharString>
          <CharString index="28">
            rmoveto
            -133 hlineto
            -207 -278 rlineto
            -4 hlineto
            -116 278 rlineto
            -127 hlineto
            172 -376 rlineto
            118 hlineto
            endchar
          </CharString>
          <CharString index="29">
            94 534 rlineto
            277 hlineto
            333 178 137 263 34 hvcurveto
            3 27 3 34 20 vvcurveto
            195 -137 155 -257 vhcurveto
            -435 -98 callgsubr
            651 1233 rmoveto
            198 71 -107 -124 -18 -2 -31 -3 -21 hvcurveto
            -144 -17 -99 -122 -260 hhcurveto
            -274 hlineto
            100 567 rlineto
            return
          </CharString>
          <CharString index="30">
            1047 rmoveto
            -150 hlineto
            -365 -878 rlineto
            -9 hlineto
            -81 878 145 callsubr
            -364 -878 rlineto
            -9 hlineto
            -73 878 rlineto
            -150 hlineto
            119 -1047 124 callsubr
            345 837 rlineto
            6 hlineto
            78 -837 rlineto
            155 hlineto
            return
          </CharString>
          <CharString index="31">
            hmoveto
            509 1120 rlineto
            10 hlineto
            128 -1120 rlineto
            152 hlineto
            571 1365 100 callsubr
            -459 -1143 rlineto
            -10 hlineto
            -118 1143 80 callgsubr
            -511 -1143 rlineto
            -10 hlineto
            -50 1143 100 callsubr
            90 92 callsubr
            return
          </CharString>
          <CharString index="32">
            56 callsubr
            345 351 rlineto
            -163 hlineto
            endchar
          </CharString>
          <CharString index="33">
            rmoveto
            57 -2 rlineto
            96 -2 64 -56 -83 vvcurveto
            -83 -68 -56 -92 -85 -67 51 68 vhcurveto
            2 0 9 3 vvcurveto
            -143 hlineto
            -2 -7 -1 -9 -14 vvcurveto
            -131 124 -95 171 185 129 104 151 103 -59 75 -98 20 vhcurveto
            1 8 rlineto
            109 9 81 86 115 vvcurveto
            129 -112 84 -162 -155 -110 -85 -124 -15 vhcurveto
            144 hlineto
            56 12 49 37 76 hhcurveto
            76 54 -46 -69 -84 -69 -51 -104 hvcurveto
            0 -66 0 -1 vhcurveto
            return
          </CharString>
          <CharString index="34">
            rmoveto
            -1 -10 -1 -9 -7 vvcurveto
            -126 120 -97 160 184 135 110 139 16 vhcurveto
            -111 hlineto
            -85 -15 -81 -67 -114 hhcurveto
            -119 -61 62 85 hvcurveto
            5 vlineto
            return
          </CharString>
          <CharString index="35">
            498 712 717 rmoveto
            198 72 -113 -132 -18 -2 -31 -3 -21 hvcurveto
            -146 -17 -100 -124 -260 145 callgsubr
            103 585 rlineto
            -274 -717 rmoveto
            424 hlineto
            334 177 138 266 34 hvcurveto
            4 111 callgsubr
            203 -137 161 -257 vhcurveto
            -283 hlineto
            91 516 rlineto
            -148 hlineto
            988 -1365 61 callsubr
            return
          </CharString>
          <CharString index="36">
            -484 rmoveto
            137 95 73 114 hvcurveto
            0 vlineto
            96 -74 57 -116 3 vhcurveto
            35 113 rlineto
            2 2 0 2 hhcurveto
            243 3 197 136 44 201 rrcurveto
            4 15 3 21 7 vvcurveto
            -147 hlineto
            -149 -32 -133 -97 -178 hhcurveto
            -230 -136 145 241 43 7 84 6 32 111 callsubr
            251 50 138 140 215 hhcurveto
            191 134 -122 -148 14 hvcurveto
            1 -8 0 -9 -1 -12 rrcurveto
            144 hlineto
            1 5 1 12 17 vvcurveto
            219 -198 184 -284 -290 -202 -190 -311 -60 vhcurveto
            -49 -252 rlineto
            -5 -28 -4 -68 -55 vvcurveto
            -279 147 -188 250 -43 vhcurveto
            -42 -129 78 callsubr
            95 -1 45 -26 -52 vvcurveto
            0 vlineto
            -53 -46 -28 -69 -40 -54 9 12 -37 vhcurveto
            -16 -94 rlineto
            -18 49 57 -10 51 hhcurveto
            return
          </CharString>
          <CharString index="37">
            -2 callsubr
            endchar
          </CharString>
          <CharString index="38">
            271 1028 97 callgsubr
            38 callgsubr
            -654 -485 rmoveto
            142 79 -69 -113 hvcurveto
            -4 0 -2 -2 vvcurveto
            -142 -4 -90 -109 -189 146 callgsubr
            77 441 rlineto
            -245 -562 rmoveto
            345 hlineto
            292 145 159 219 4 hvcurveto
            3 1 3 3 vvcurveto
            169 -126 127 -237 vhcurveto
            -157 hlineto
            64 364 -49 callsubr
            return
          </CharString>
          <CharString index="39">
            hmoveto
            185 1056 rlineto
            10 hlineto
            249 -950 rlineto
            99 hlineto
            585 950 rlineto
            9 hlineto
            -186 -1056 rlineto
            142 hlineto
            99 callsubr
            -156 hlineto
            -649 -1064 rlineto
            -7 hlineto
            -281 1064 rlineto
            -140 -98 callgsubr
            return
          </CharString>
          <CharString index="40">
            -10 callsubr
            -148 hlineto
            -177 -1009 rlineto
            -164 -29 -87 -82 -127 hhcurveto
            -128 -87 83 114 13 0 5 2 15 hvcurveto
            -138 hlineto
            -4 -14 -2 -21 -23 vvcurveto
            -177 149 -133 212 205 136 126 243 43 vhcurveto
            return
          </CharString>
          <CharString index="41">
            rmoveto
            -55 43 -42 54 54 43 42 55 55 -43 42 -54 -54 -43 -42 -55 vhcurveto
            endchar
          </CharString>
          <CharString index="42">
            -88 460 -484 rmoveto
            128 104 42 callgsubr
            39 124 rlineto
            6 6 0 7 hhcurveto
            210 157 110 165 29 hvcurveto
            -149 hlineto
            -78 -19 -85 -68 -136 77 callsubr
            190 33 3 32 8 43 hvcurveto
            112 callgsubr
            190 34 117 106 154 hhcurveto
            162 89 116 callgsubr
            137 hlineto
            1 1 10 2 vvcurveto
            175 -143 152 -246 -232 -168 -132 -250 -43 vhcurveto
            -26 -150 rlineto
            -9 -53 -5 -56 -40 vvcurveto
            -200 109 -140 174 -44 vhcurveto
            -49 -148 -9 -74 rlineto
            50 hlineto
            73 -1 67 4 callgsubr
            return
          </CharString>
          <CharString index="43">
            -184 319 -49 callsubr
            219 -319 rlineto
            return
          </CharString>
          <CharString index="44">
            62 callgsubr
            193 150 rlineto
            11 hlineto
            138 -150 rlineto
            151 hlineto
            -217 230 80 callgsubr
            return
          </CharString>
          <CharString index="45" raw="1">
            15f855f7 df65e6fc 56fbdf05 ddf74815
            f742aed0 e4ef1be7 bf42fb13 6e875f85
            671f7e40 05fb416b 4432221b 2e5cd0f7
            1aac8eab 92b31ffb 1ca5481d 
          </CharString>
          <CharString index="46">
            rmoveto
            118 80 118 122 8 hvcurveto
            -112 hlineto
            -52 -9 -27 -75 -54 -82 -23 175 -151 hhcurveto
            -106 -79 -86 -152 -15 hvcurveto
            113 hlineto
            56 11 19 69 57 94 13 -175 145 hhcurveto
            return
          </CharString>
          <CharString index="47">
            -91 callsubr
            endchar
          </CharString>
          <CharString index="48">
            -64 597 505 rmoveto
            -143 -78 68 113 133 89 107 194 hvcurveto
            198 hlineto
            -74 -421 rlineto
            -89 -505 87 callsubr
            -353 hlineto
            -301 -142 -159 -209 -117 69 -102 119 -44 hvcurveto
            -374 -416 rlineto
            183 hlineto
            345 384 rlineto
            1 1 0 2 hhcurveto
            187 hlineto
            return
          </CharString>
          <CharString index="49">
            rmoveto
            -479 -568 -8 1 -272 567 120 callsubr
            335 -676 -573 -689 rlineto
            184 hlineto
            463 575 8 -1 286 -574 140 callsubr
            -350 679 589 686 rlineto
            return
          </CharString>
          <CharString index="50">
            146 -20 callgsubr
            -138 hlineto
            -917 -1102 rlineto
            -8 hlineto
            196 1102 rlineto
            -147 -98 callgsubr
            138 hlineto
            918 1102 rlineto
            7 hlineto
            return
          </CharString>
          <CharString index="51">
            89 callgsubr
            199 246 rmoveto
            -15 -86 rlineto
            8 21 31 5 23 hhcurveto
            70 36 -25 -51 -47 -42 -41 -73 -23 hvcurveto
            39 -76 rlineto
            108 33 68 77 91 vvcurveto
            95 -67 51 -126 -27 -28 -5 -6 -18 vhcurveto
            endchar
          </CharString>
          <CharString index="52">
            rmoveto
            5 18 2 14 19 vvcurveto
            116 -99 96 -159 -161 -133 -110 -153 -17 vhcurveto
            106 hlineto
            104 18 72 63 102 hhcurveto
            98 63 -54 -81 -14 -1 -9 -2 -9 hvcurveto
            endchar
          </CharString>
          <CharString index="53">
            rmoveto
            1 10 1 9 7 vvcurveto
            126 -120 97 -160 -184 -135 -110 -139 -16 vhcurveto
            112 hlineto
            85 14 81 67 114 hhcurveto
            119 62 -62 -85 hvcurveto
            -5 vlineto
            return
          </CharString>
          <CharString index="54">
            144 92 callgsubr
            -134 hlineto
            -688 -804 rlineto
            -8 hlineto
            142 804 86 callgsubr
            -185 -1047 rlineto
            133 hlineto
            688 804 rlineto
            8 hlineto
            return
          </CharString>
          <CharString index="55">
            rmoveto
            -176 125 -120 181 185 135 130 172 156 -100 109 -140 -57 -41 -13 -22 -25 vhcurveto
            -13 hlineto
            1 36 40 21 19 hvcurveto
            27 31 231 227 21 16 rrcurveto
            -197 hlineto
            -14 -11 -170 -174 -24 -26 rrcurveto
            -124 -132 -56 -105 -123 vvcurveto
            313 172 rmoveto
            100 73 -71 -101 -101 -73 -72 -101 -100 -72 72 100 101 73 72 100 hvcurveto
            endchar
          </CharString>
          <CharString index="56" raw="1">
            7e1dfb85 1cfaab05 0e 
          </CharString>
          <CharString index="57">
            rmoveto
            55 46 42 55 55 -46 67 callgsubr
            -26 callsubr
            348 hmoveto
            55 45 42 55 55 -45 67 callgsubr
            -26 callsubr
            endchar
          </CharString>
          <CharString index="58">
            rlineto
            -41 callgsubr
            return
          </CharString>
          <CharString index="59">
            -61 625 1064 rmoveto
            -231 -142 -140 -131 -30 hvcurveto
            -9 callgsubr
            74 23 86 67 146 hhcurveto
            190 72 -134 -144 -37 -5 -38 -6 -24 hvcurveto
            -695 hlineto
            -2 -9 -20 -111 -4 vvcurveto
            -209 -32 93 -241 297 hhcurveto
            254 170 147 248 45 hvcurveto
            140 callgsubr
            6 38 10 62 59 vvcurveto
            257 -168 137 -231 vhcurveto
            -328 -624 rmoveto
            553 hlineto
            -3 -14 -65 -2 vvcurveto
            -179 -38 -125 -84 -146 hhcurveto
            -177 -85 138 169 28 hvcurveto
            4 3 19 1 3 vhcurveto
            return
          </CharString>
          <CharString index="60">
            218 1233 rlineto
            431 hlineto
            21 132 rlineto
            -1009 hlineto
            -23 -132 rlineto
            432 hlineto
            -218 -1233 rlineto
            return
          </CharString>
          <CharString index="61">
            1365 return
          </CharString>
          <CharString index="62">
            rmoveto
            -554 -110 -65 -243 -169 hhcurveto
            -30 -20 8 0 hvcurveto
            -24 -137 rlineto
            0 23 -9 33 296 74 279 645 132 vhcurveto
            65 317 rlineto
            524 88 callsubr
            148 -20 callgsubr
            -814 hlineto
            endchar
          </CharString>
          <CharString index="63">
            153 149 248 45 return
          </CharString>
          <CharString index="64">
            87 1 -103 callsubr
            -278 319 -91 callsubr
            return
          </CharString>
          <CharString index="65">
            147 hlineto
            84 481 rlineto
            86 hlineto
            289 -481 124 callsubr
            -327 535 490 512 rlineto
            -185 hlineto
            -415 -445 rlineto
            -79 hlineto
            78 137 callsubr
            -79 -445 rlineto
            -74 hlineto
            -272 445 rlineto
            -156 hlineto
            298 -476 -522 -571 rlineto
            178 hlineto
            446 481 rlineto
            81 hlineto
            return
          </CharString>
          <CharString index="66">
            rmoveto
            -335 -66 -36 -202 -134 hhcurveto
            -25 -19 7 0 hvcurveto
            -23 -134 rlineto
            0 20 -10 35 253 45 230 446 89 vhcurveto
            52 258 rlineto
            402 98 callsubr
            185 1047 rlineto
            -686 hlineto
            endchar
          </CharString>
          <CharString index="67">
            1167 rmoveto
            18 hlineto
            -115 -613 rlineto
            -379 hlineto
            281 -554 rmoveto
            798 hlineto
            23 132 rlineto
            -651 hlineto
            90 135 callsubr
            21 91 callgsubr
            648 hlineto
            23 132 rlineto
            -848 hlineto
            -1065 138 callgsubr
            hlineto
            338 431 rlineto
            444 hlineto
            return
          </CharString>
          <CharString index="68">
            rmoveto
            -55 44 -41 57 57 44 41 55 58 -44 40 -57 -57 -44 -40 -58 vhcurveto
            520 hmoveto
            -55 43 -41 55 60 44 41 55 58 -44 40 -60 -55 -43 -40 -58 vhcurveto
            -259 -96 rmoveto
            113 hlineto
            155 351 rlineto
            -164 hlineto
            endchar
          </CharString>
          <CharString index="69">
            615 rmoveto
            171 30 109 57 callgsubr
            157 63 -107 -123 -45 -9 -55 -4 -27 hvcurveto
            -104 -583 71 callsubr
            101 46 callgsubr
            10 -18 callgsubr
            -109 -76 -116 -52 vhcurveto
            -11 hlineto
            57 315 rlineto
            253 hlineto
            22 117 rlineto
            -253 hlineto
            24 130 rlineto
            -145 hlineto
            -23 -130 rlineto
            -145 hlineto
            -22 -117 71 callsubr
            -211 -1187 -21 callgsubr
            endchar
          </CharString>
          <CharString index="70">
            rlineto
            -148 -98 callgsubr
            148 hlineto
            return
          </CharString>
          <CharString index="71">
            rmoveto
            -188 351 rlineto
            -160 hlineto
            236 -351 rlineto
            endchar
          </CharString>
          <CharString index="72" raw="1">
            881d0e   
          </CharString>
          <CharString index="73">
            875 607 rmoveto
            -553 hlineto
            2 14 66 2 vvcurveto
            179 38 125 84 140 hhcurveto
            183 85 -138 -169 -28 hvcurveto
            -5 -3 -18 -1 -3 vhcurveto
            -403 -1091 rmoveto
            128 104 42 callgsubr
            39 124 rlineto
            1 2 0 1 hhcurveto
            226 5 143 141 24 125 rrcurveto
            -41 callgsubr
            -72 -21 -89 -70 -140 hhcurveto
            -194 -73 135 144 36 5 39 6 23 hvcurveto
            696 hlineto
            2 10 22 127 4 vvcurveto
            193 29 -94 241 -309 hhcurveto
            -241 -171 -147 -234 -41 hvcurveto
            -27 -148 rlineto
            -7 -37 -9 -62 -59 vvcurveto
            -218 120 -131 176 -35 vhcurveto
            -48 -142 84 callgsubr
            56 -17 71 hhcurveto
            return
          </CharString>
          <CharString index="74">
            hlineto
            -185 18 callsubr
            return
          </CharString>
          <CharString index="75">
            147 -18 callsubr
            return
          </CharString>
          <CharString index="76">
            185 1047 rlineto
            return
          </CharString>
          <CharString index="77">
            rmoveto
            105 308 101 callgsubr
            -80 -308 rlineto
            endchar
          </CharString>
          <CharString index="78">
            -53 42 -43 55 return
          </CharString>
          <CharString index="79">
            rmoveto
            -9 -74 50 -1 rlineto
            74 -1 66 -14 -64 vvcurveto
            0 vlineto
            -64 -62 -16 -52 -40 -54 8 13 -38 vhcurveto
            -16 -94 rlineto
            -11 30 57 -17 71 hhcurveto
            127 48 callsubr
            -108 3 vhcurveto
            49 153 rlineto
            -113 hlineto
            endchar
          </CharString>
          <CharString index="80">
            rmoveto
            106 69 96 100 9 hvcurveto
            -102 hlineto
            -65 -9 -28 -40 -46 -75 -10 120 -147 hhcurveto
            -104 -69 27 callgsubr
          </CharString>
          <CharString index="81">
            -55 45 -42 55 hvcurveto
            return
          </CharString>
          <CharString index="82">
            -517 314 1047 rmoveto
            -128 -727 rlineto
            -10 -55 -5 -47 -32 vvcurveto
            -130 82 -65 166 48 64 6 7 29 vhcurveto
            112 callgsubr
            -6 -29 -56 -5 -44 hhcurveto
            -90 -40 33 75 30 4 33 16 92 hvcurveto
            119 670 rlineto
            return
          </CharString>
          <CharString index="83" raw="1">
            15f72a1d fb2f062e 5fafdad2 bbd49293
            1ffb1306 8484563c 2a1afb14 e03ff735
            1ef828fc 8e870a  
          </CharString>
          <CharString index="84">
            rmoveto
            166 hlineto
            330 201 rlineto
            -194 hlineto
            -491 -366 rmoveto
            -53 42 -44 55 54 42 44 53 54 -42 116 callsubr
            331 hmoveto
            -53 42 -44 55 129 callgsubr
            -55 -42 -43 -54 vhcurveto
            return
          </CharString>
          <CharString index="85">
            hhcurveto
            -97 -63 54 81 14 1 9 1 9 hvcurveto
            -106 hlineto
            -5 -17 -1 return
          </CharString>
          <CharString index="86">
            375 995 -17 rmoveto
            199 154 145 291 54 hvcurveto
            19 98 7 98 72 vvcurveto
            132 -39 132 -62 96 vhcurveto
            -163 hlineto
            82 -126 35 -125 -147 vvcurveto
            -63 -2 -63 -19 -99 vhcurveto
            -223 -40 -100 -90 -123 hhcurveto
            -96 -53 60 128 29 0 31 6 34 hvcurveto
            59 348 rlineto
            -145 hlineto
            -64 -370 rlineto
            -180 -31 -87 -80 -101 hhcurveto
            -130 -51 62 169 30 8 88 13 66 hvcurveto
            46 240 72 130 138 151 rrcurveto
            -164 hlineto
            -126 -141 -65 -145 -32 -161 rrcurveto
            -24 -125 -8 -79 -53 vvcurveto
            -219 93 -141 207 130 91 55 150 67 vhcurveto
            7 hlineto
            -119 17 81 -86 140 hhcurveto
            return
          </CharString>
          <CharString index="87">
            rmoveto
            71 44 -70 -110 -168 -63 -109 -99 -72 -44 67 110 167 65 113 98 hvcurveto
            -291 -281 rmoveto
            -179 91 -114 145 179 119 159 242 174 -96 117 -143 -177 -118 -159 -240 vhcurveto
            -479 975 rmoveto
            71 44 -69 -111 -168 -63 -108 -99 -72 -45 67 109 168 65 112 99 hvcurveto
            -291 -280 rmoveto
            -180 91 -114 145 179 119 160 241 175 -96 117 -143 -177 -118 -160 -239 vhcurveto
            122 -979 rmoveto
            13 callsubr
            endchar
          </CharString>
          <CharString index="88">
            -51 -107 callgsubr
            106 935 rmoveto
            133 hlineto
            return
          </CharString>
          <CharString index="89">
            hlineto
            -7 callgsubr
            return
          </CharString>
          <CharString index="90">
            hmoveto
            455 hlineto
            25 133 rlineto
            -251 hlineto
            1 10 176 89 96 130 42 232 rlinecurve
            17 95 rlineto
            11 63 10 87 50 vvcurveto
            290 -173 215 -349 -300 -221 -189 -328 -55 vhcurveto
            -28 -168 rlineto
            -9 -53 -4 -48 -45 vvcurveto
            -193 79 -152 105 -75 vhcurveto
            -1 -10 rlineto
            -263 80 callsubr
            432 hlineto
            26 146 rlineto
            -124 63 -83 158 193 vvcurveto
            44 4 46 9 52 vhcurveto
            27 156 rlineto
            244 43 146 154 236 hhcurveto
            227 151 -123 -242 -62 -5 -47 -15 -84 hvcurveto
            -13 -73 -42 -240 -136 -184 -198 -65 rlinecurve
            return
          </CharString>
          <CharString index="91">
            -105 518 -19 rmoveto
            229 163 132 180 9 hvcurveto
            -140 hlineto
            -107 -16 -112 -79 -145 hhcurveto
            -142 -95 65 113 -2 hvcurveto
            -1 98 79 60 145 22 16 3 17 2 17 1 20 1 19 2 18 3 243 33 130 105 -3 171 rrcurveto
            174 -3 -141 106 -215 hhcurveto
            -227 -143 -131 -173 -8 hvcurveto
            138 hlineto
            106 11 91 80 134 hhcurveto
            125 91 -64 -97 2 hvcurveto
            3 -106 -66 -49 -187 -28 -20 -3 -20 -2 -23 -3 -17 -2 -16 -3 -17 -3 -227 -37 -112 -101 3 -172 rrcurveto
            -185 4 155 -112 236 hhcurveto
            endchar
          </CharString>
          <CharString index="92">
            rmoveto
            172 hlineto
            185 132 rlineto
            10 hlineto
            130 -132 139 callsubr
            -216 200 80 callgsubr
            205 47 rmoveto
            103 66 93 97 9 hvcurveto
            -99 hlineto
            -64 -8 -27 -38 -44 -74 -9 107 -141 hhcurveto
            -100 -67 -80 -89 -12 hvcurveto
            99 hlineto
            42 7 26 39 47 79 9 -107 136 hhcurveto
            endchar
          </CharString>
          <CharString index="93">
            hlineto
            -164 -928 rlineto
            -219 -39 -145 -107 -185 hhcurveto
            -204 -127 128 194 37 5 47 3 17 hvcurveto
            return
          </CharString>
          <CharString index="94">
            647 rmoveto
            92 -3 rlineto
            169 -5 135 -100 -166 vvcurveto
            -166 -138 -106 -174 -181 -114 116 108 6 0 5 1 8 vhcurveto
            -141 hlineto
            -2 -10 -2 -14 -18 vvcurveto
            -167 159 -165 273 275 193 164 242 167 -96 124 -155 34 vhcurveto
            2 12 rlineto
            136 11 168 110 218 vvcurveto
            232 -195 110 -209 -242 -142 -145 -157 -13 vhcurveto
            144 hlineto
            80 17 78 90 154 hhcurveto
            148 119 -83 -147 -174 -164 -75 -167 -9 -50 1 2 -46 hvcurveto
            endchar
          </CharString>
          <CharString index="95">
            -180 127 -140 174 92 80 38 54 49 vhcurveto
            19 hlineto
            -162 -40 -168 -119 -197 hhcurveto
            -10 -12 0 1 -10 hvcurveto
            -19 -114 rlineto
            -2 18 17 0 20 hhcurveto
            303 252 206 336 271 -165 148 -194 -191 -145 -144 -193 hvcurveto
            return
          </CharString>
          <CharString index="96">
            rmoveto
            147 135 96 214 16 231 10 146 -33 179 -61 109 rrcurveto
            -138 hlineto
            57 -123 25 -156 -10 -163 -14 -217 -102 -235 -130 -120 rrcurveto
            endchar
          </CharString>
          <CharString index="97">
            -46 callsubr
            rmoveto
            return
          </CharString>
          <CharString index="98">
            -46 callsubr
            rlineto
            return
          </CharString>
          <CharString index="99">
            -15 -63 vvcurveto
            0 vlineto
            -64 -62 -17 -52 -40 -54 9 12 -38 vhcurveto
            -16 -94 rlineto
            -11 30 return
          </CharString>
          <CharString index="100">
            149 850 rlineto
            -154 hlineto
            -213 -119 -22 -138 205 118 rlineto
            9 hlineto
            -126 -711 rlineto
            return
          </CharString>
          <CharString index="101">
            rmoveto
            -41 callgsubr
            -110 -620 rlineto
            -173 -30 -95 -147 -176 hhcurveto
            -144 -53 99 126 45 6 48 5 28 hvcurveto
            105 594 rlineto
            -147 hlineto
            -110 -620 rlineto
            -184 -33 -94 -136 -159 hhcurveto
            -138 -52 97 130 45 7 47 4 28 hvcurveto
            104 593 -49 callsubr
            -102 -583 rlineto
            -8 -49 -11 -62 -54 vvcurveto
            -171 95 -145 210 187 91 117 83 37 vhcurveto
            10 hlineto
            -114 34 98 -86 161 hhcurveto
            155 96 89 103 42 hvcurveto
            11 hlineto
            -31 -175 rlineto
            143 hlineto
            endchar
          </CharString>
          <CharString index="102">
            hmoveto
            -1 callgsubr
            return
          </CharString>
          <CharString index="103">
            -106 callsubr
            endchar
          </CharString>
          <CharString index="104">
            284 468 -10 callsubr
            -108 -601 rlineto
            -159 144 callsubr
            rlineto
            160 hlineto
            -112 -633 rlineto
            367 hlineto
            439 247 184 364 64 hvcurveto
            4 25 143 6 vvcurveto
            9 52 3 63 38 vvcurveto
            305 -183 206 -362 vhcurveto
            -242 -132 rmoveto
            202 hlineto
            291 144 -139 -256 -36 -3 -62 -7 -39 hvcurveto
            -6 -23 -128 -1 -4 vhcurveto
            -290 -52 -220 -141 -329 hhcurveto
            -196 hlineto
            89 501 rlineto
            321 129 callsubr
            -322 hlineto
            endchar
          </CharString>
          <CharString index="105">
            -41 callgsubr
            -196 -1106 rlineto
            -114 -20 -67 -67 -103 hhcurveto
            -30 -28 50 callsubr
            21 42 -7 31 33 callgsubr
            49 1413 -42 callgsubr
            return
          </CharString>
          <CharString index="106">
            rmoveto
            23 122 rlineto
            -248 hlineto
            45 261 rlineto
            -129 hlineto
            -46 -261 rlineto
            -246 hlineto
            -23 -122 rlineto
            247 hlineto
            -46 -269 rlineto
            128 hlineto
            48 269 rlineto
            endchar
          </CharString>
          <CharString index="107">
            -110 289 277 rmoveto
            133 111 64 159 vhcurveto
            126 hlineto
            20 121 rlineto
            -125 hlineto
            -112 -75 52 91 119 89 75 149 156 53 -83 -91 hvcurveto
            144 hlineto
            169 9 -106 137 -250 hhcurveto
            -232 -158 -137 -194 -95 65 -71 79 -21 hvcurveto
            -1 -6 rlineto
            -129 -21 -119 -99 -159 vvcurveto
            -167 130 -111 235 255 135 152 144 33 vhcurveto
            -144 hlineto
            -85 -34 -80 -79 -157 hhcurveto
            -143 -83 56 106 hvcurveto
            return
          </CharString>
          <CharString index="108">
            rmoveto
            115 7 65 67 26 148 52 288 rcurveline
            116 21 63 98 179 hhcurveto
            45 hlineto
            21 117 rlineto
            -51 hlineto
            -200 -161 -49 -270 -49 hvcurveto
            -45 -249 rlineto
            -142 -26 -51 -61 -138 hhcurveto
            -28 -162 rlineto
            140 27 -65 -139 -24 hvcurveto
            -48 -274 -8 -78 -22 vvcurveto
            -152 -5 90 -80 208 hhcurveto
            60 hlineto
            21 117 rlineto
            -45 hlineto
            -162 -35 44 112 4 hvcurveto
            18 9 60 55 307 vhcurveto
            23 136 -58 76 -93 10 rrcurveto
            endchar
          </CharString>
          <CharString index="109">
            211 97 callgsubr
            105 600 rlineto
            225 39 128 115 162 hhcurveto
            128 87 -72 -166 -36 -5 -40 -8 -45 hvcurveto
            -168 -943 71 callsubr
            173 977 rlineto
            8 42 3 39 36 vvcurveto
            218 -136 114 -183 -153 -105 -68 -124 -62 vhcurveto
            -11 hlineto
            1 3 0 2 2 vvcurveto
            108 -4 -63 70 -113 hhcurveto
            -31 -22 -2 -6 -23 hvcurveto
            -21 -121 rlineto
            3 16 14 2 13 hhcurveto
            60 23 -32 -55 -15 -1 -9 -3 -19 hvcurveto
            return
          </CharString>
          <CharString index="110">
            rmoveto
            -55 45 -42 55 55 46 42 55 55 -46 142 callsubr
            348 hmoveto
            -55 45 -42 55 55 45 42 55 55 -45 142 callsubr
            -135 210 rmoveto
            120 hlineto
            335 349 rlineto
            -155 hlineto
            endchar
          </CharString>
          <CharString index="111">
            937 rmoveto
            263 -181 194 -273 -284 -196 -208 -261 -253 185 -181 227 93 61 32 33 41 vhcurveto
            18 hlineto
            -4 -4 -60 -65 -14 -14 -473 -473 rcurveline
            196 hlineto
            375 380 rlineto
            181 183 108 166 208 vvcurveto
            -471 -330 rmoveto
            -186 -132 137 185 188 139 143 189 185 133 -135 -186 -188 -139 -144 -189 hvcurveto
            endchar
          </CharString>
          <CharString index="112">
            -149 732 51 callsubr
            return
          </CharString>
          <CharString index="113">
            -19 468 hmoveto
            -50 83 callsubr
            -63 -17 -52 -40 -53 9 12 -39 vhcurveto
            -16 -94 rlineto
            -11 31 149 callsubr
            127 105 42 callgsubr
            44 141 rlineto
            366 hlineto
            22 132 rlineto
            -651 133 callgsubr
            -616 hlineto
            83 463 rlineto
            647 hlineto
            23 132 rlineto
            -795 -98 callgsubr
            return
          </CharString>
          <CharString index="114">
            194 rlineto
            4 hlineto
            125 -194 rlineto
            return
          </CharString>
          <CharString index="115">
            -45 callgsubr
            endchar
          </CharString>
          <CharString index="116" raw="1">
            9afa57fa 32f70b1d fdac0676 fb0d05f8
            b2fc0015 f721db46 fb05878b 898a891f
            fb228831 fb01fb52 f7261dd9 f84d05fb
            89fcc615 f7ed06f7 b8f725f7 33f76f8f
            1f8e8b8e 8e1af73d fb11f713 fb811efb
            3106f717 f986e00a  
          </CharString>
          <CharString index="117">
            1047 rlineto
            -149 hlineto
            -430 -884 rlineto
            -10 hlineto
            -126 884 rlineto
            -150 hlineto
            return
          </CharString>
          <CharString index="118" raw="1">
            15340a0e   
          </CharString>
          <CharString index="119">
            815 121 rmoveto
            -536 hlineto
            1 6 68 68 38 123 72 315 rlinecurve
            5 21 57 251 4 21 rrcurveto
            433 hlineto
            -889 -1211 rmoveto
            50 285 rlineto
            864 17 callgsubr
            -171 hlineto
            163 926 rlineto
            -712 hlineto
            -4 -23 -83 -370 -5 -24 -78 -346 -40 -112 -103 -51 rrcurveto
            -88 hlineto
            -72 -406 rlineto
            endchar
          </CharString>
          <CharString index="120">
            -9 callgsubr
            445 683 445 681 rlineto
            -145 hlineto
            -424 -650 rlineto
            return
          </CharString>
          <CharString index="121">
            1033 rmoveto
            0 vlineto
            117 11 94 110 165 hhcurveto
            166 88 -109 -115 -134 -117 -121 -104 -104 hvcurveto
            -578 -572 -18 -105 rlineto
            857 129 callsubr
            -641 hlineto
            3 12 446 438 rlineto
            149 148 124 131 183 vvcurveto
            196 -147 155 -243 -253 -162 -168 -193 -7 vhcurveto
            0 vlineto
            endchar
          </CharString>
          <CharString index="122">
            66 121 hvcurveto
            0 vlineto
            103 -83 50 return
          </CharString>
          <CharString index="123">
            1502 -91 callsubr
            return
          </CharString>
          <CharString index="124">
            143 callsubr
            133 hlineto
            73 419 rlineto
            return
          </CharString>
          <CharString index="125">
            -1047 -21 callgsubr
            return
          </CharString>
          <CharString index="126">
            rmoveto
            -5 -18 -2 -15 -18 vvcurveto
            -115 110 callsubr
            152 17 vhcurveto
            -106 hlineto
            -103 -18 -72 -63 -102 hhcurveto
            -98 -63 54 80 134 callsubr
          </CharString>
          <CharString index="127">
            rmoveto
            25 117 rlineto
            -568 hlineto
            -25 -117 rlineto
            623 259 rmoveto
            25 118 rlineto
            -568 hlineto
            -25 -118 rlineto
            endchar
          </CharString>
          <CharString index="128">
            1577 -101 callgsubr
            return
          </CharString>
          <CharString index="129">
            216 1231 rlineto
            642 hlineto
            24 134 rlineto
            -790 -98 callgsubr
            return
          </CharString>
          <CharString index="130">
            rmoveto
            258 167 189 209 195 -125 129 -259 hvcurveto
            -163 hlineto
            60 342 rlineto
            -144 hlineto
            -119 -668 rlineto
            -237 -42 127 -159 240 hhcurveto
            6 121 rmoveto
            -147 -69 101 153 27 hvcurveto
            40 225 rlineto
            167 hlineto
            176 79 -71 -132 -144 -100 -132 -173 hvcurveto
            endchar
          </CharString>
          <CharString index="131">
            rmoveto
            20 118 rlineto
            -411 hlineto
            137 239 rlineto
            317 hlineto
            21 119 rlineto
            -271 hlineto
            171 301 rlineto
            -125 hlineto
            -171 -301 rlineto
            -424 hlineto
            -21 -119 rlineto
            378 hlineto
            -137 -239 rlineto
            -284 hlineto
            -20 -118 rlineto
            239 hlineto
            -174 -307 rlineto
            124 hlineto
            175 307 rlineto
            endchar
          </CharString>
          <CharString index="132">
            rmoveto
            -59 -47 49 59 59 47 47 59 59 45 -47 -59 -59 -45 -49 -59 hvcurveto
            -73 vmoveto
            102 82 79 102 102 -82 78 -102 -102 -82 -78 -102 -102 82 -79 102 hvcurveto
            endchar
          </CharString>
          <CharString index="133">
            hlineto
            -187 286 rlineto
            -95 hlineto
            return
          </CharString>
          <CharString index="134">
            rmoveto
            -171 hlineto
            -185 -133 rlineto
            -11 hlineto
            -129 133 100 callsubr
            216 -200 rlineto
            140 hlineto
            -268 -260 rmoveto
            54 42 43 53 52 136 callgsubr
            -52 -29 callsubr
            hvcurveto
            331 hmoveto
            54 43 43 53 52 136 callsubr
            -52 -29 callsubr
            hvcurveto
            endchar
          </CharString>
          <CharString index="135">
            79 640 hmoveto
            727 -9 callsubr
            -164 hlineto
            -610 -1180 rlineto
            -9 hlineto
            -190 1180 rlineto
            -160 hlineto
            249 92 callsubr
            return
          </CharString>
          <CharString index="136">
            191 1078 hmoveto
            -3 callgsubr
            return
          </CharString>
          <CharString index="137">
            hmoveto
            -13 callgsubr
            return
          </CharString>
          <CharString index="138">
            rmoveto
            -53 43 -44 54 129 callgsubr
            -54 -43 -43 -54 vhcurveto
            441 306 26 callgsubr
            endchar
          </CharString>
          <CharString index="139">
            262 523 rlineto
            -179 hlineto
            -206 -523 rlineto
            return
          </CharString>
          <CharString index="140">
            -9 -55 -6 -47 -32 vvcurveto
            return
          </CharString>
          <CharString index="141">
            rmoveto
            22 102 rlineto
            -584 hlineto
            -22 -102 rlineto
            366 -402 rmoveto
            114 73 110 115 8 hvcurveto
            -103 hlineto
            -75 -8 -32 -47 -50 -82 -5 156 -160 hhcurveto
            -112 -73 -95 -130 -11 hvcurveto
            103 hlineto
            75 8 27 47 55 89 5 -156 154 hhcurveto
            endchar
          </CharString>
          <CharString index="142">
            771 rmoveto
            6 hlineto
            213 -690 rlineto
            114 hlineto
            453 690 rlineto
            6 hlineto
            -136 -771 71 callsubr
            184 1047 rlineto
            -163 hlineto
            -518 -804 rlineto
            -6 hlineto
            -238 804 rlineto
            -152 hlineto
            -185 -1047 rlineto
            141 hlineto
            endchar
          </CharString>
          <CharString index="143">
            -50 callgsubr
            93 1576 -101 callgsubr
            endchar
          </CharString>
          <CharString index="144">
            -10 callsubr
            -161 hlineto
            -692 -930 -24 -131 rlineto
            631 hlineto
            -56 -304 rlineto
            145 hlineto
            55 304 rlineto
            195 hlineto
            22 131 rlineto
            -197 hlineto
            71 397 rlineto
            -144 hlineto
            -69 -397 rlineto
            -458 hlineto
            2 14 rlineto
            endchar
          </CharString>
          <CharString index="145">
            33 callsubr
            -130 return
          </CharString>
          <CharString index="146">
            33 6 33 hvcurveto
            return
          </CharString>
          <CharString index="147">
            rmoveto
            411 hlineto
            22 120 rlineto
            -412 hlineto
            50 285 rlineto
            -119 hlineto
            -49 -285 rlineto
            -410 hlineto
            -22 -120 rlineto
            410 hlineto
            -53 -299 rlineto
            119 hlineto
            377 -234 rmoveto
            22 120 rlineto
            -940 hlineto
            -22 -120 rlineto
            endchar
          </CharString>
          <CharString index="148">
            rmoveto
            -67 53 -51 65 69 53 51 67 69 -53 52 -69 -65 -53 -52 -69 vhcurveto
            -100 -763 rmoveto
            -67 53 -51 65 70 52 51 67 69 -52 52 -70 -65 -53 -52 -69 vhcurveto
            637 321 75 callsubr
          </CharString>
          <CharString index="149">
            26 143 rlineto
            return
          </CharString>
          <CharString index="150">
            119 callgsubr
            -844 hlineto
            -21 -121 rlineto
            348 98 callsubr
            164 926 rlineto
            endchar
          </CharString>
          <CharString index="151">
            rmoveto
            1848 hlineto
            54 87 callgsubr
            53 304 rlineto
            -1848 hlineto
            return
          </CharString>
          <CharString index="152">
            26 callgsubr
            -69 212 rmoveto
            54 43 43 52 53 -43 42 -54 -54 -43 -42 -53 -52 43 -43 54 hvcurveto
            -331 hmoveto
            54 43 43 52 53 -43 42 -54 -54 -43 -42 -53 -52 43 -43 54 hvcurveto
            endchar
          </CharString>
          <CharString index="153">
            -7 1 rlineto
            83 -40 -91 107 -191 hhcurveto
            -218 -184 -140 -251 -42 hvcurveto
            -18 -106 rlineto
            -7 -39 -3 -37 -37 vvcurveto
            -269 179 -158 243 222 178 133 258 45 vhcurveto
            -387 516 rmoveto
            return
          </CharString>
          <CharString index="154">
            rmoveto
            141 hlineto
            295 202 rlineto
            -176 hlineto
            118 -318 rmoveto
            -577 hlineto
            -21 -97 rlineto
            578 hlineto
            endchar
          </CharString>
          <CharString index="155">
            105 15 callsubr
            return
          </CharString>
          <CharString index="156">
            rmoveto
            -90 21 -3 -3 -62 -51 -3 -2 rlinecurve
            -46 -39 -70 -73 -110 vvcurveto
            -135 107 -68 118 32 26 5 5 15 vhcurveto
            1 93 rlineto
            -1 -3 -30 0 -4 hhcurveto
            -118 -25 69 50 104 102 94 53 41 hvcurveto
            endchar
          </CharString>
          <CharString index="157">
            4 5 -22 hvcurveto
            -27 -121 rlineto
            -5 return
          </CharString>
          <CharString index="158">
            hmoveto
            -45 callgsubr
            return
          </CharString>
          <CharString index="159">
            -70 56 -55 69 73 56 55 70 74 -56 55 -73 -69 -56 -55 -74 vhcurveto
            endchar
          </CharString>
          <CharString index="160">
            rlineto
            -147 hlineto
            102 callgsubr
            rlineto
            -511 88 callgsubr
            -185 -1047 rlineto
            return
          </CharString>
          <CharString index="161" raw="1">
            25f81616 c60a0b  
          </CharString>
          <CharString index="162">
            rmoveto
            90 -173 52 -172 -296 vvcurveto
            -606 -272 -366 -145 -130 vhcurveto
            134 hlineto
            190 166 241 386 570 vvcurveto
            236 -72 232 -84 153 vhcurveto
            endchar
          </CharString>
          <CharString index="163">
            rmoveto
            123 hlineto
            return
          </CharString>
          <CharString index="164" raw="1">
            f70c74f7 15f70e1a af8db091 ae1ef72e
            a6f705d8 f7471be5 f5716cc4 1fa3f717
            05a751fb 0aa8361b fba9fb30 0b
          </CharString>
          <CharString index="165">
            rmoveto
            866 -326 25 136 -654 236 1 5 740 254 24 135 -987 -351 rlineto
            817 -661 rmoveto
            22 120 rlineto
            -940 hlineto
            -22 -120 rlineto
            endchar
          </CharString>
          <CharString index="166" raw="1">
            f72506f8 ac950af7 101cfa8f 15f72406
            d4f83205 fb24060b  
          </CharString>
          <CharString index="167">
            rmoveto
            15 89 -862 351 -23 -135 650 -253 -1 -5 -736 -237 -25 -136 rlineto
            901 -246 rmoveto
            150 callgsubr
            -939 hlineto
            -22 -120 rlineto
            endchar
          </CharString>
          <CharString index="168">
            rmoveto
            -13 callgsubr
            -241 -1365 rlineto
            return
          </CharString>
          <CharString index="169">
            -574 rmoveto
            135 24 -89 119 -206 hhcurveto
            -221 -109 -114 -140 -24 hvcurveto
            109 hlineto
            97 17 79 68 136 hhcurveto
            136 56 -68 -97 -17 hvcurveto
            endchar
          </CharString>
          <CharString index="170">
            rmoveto
            -73 88 -369 -307 -258 313 -88 -79 257 -312 -350 -303 73 -89 350 304 260 -317 88 79 -260 315 rlineto
            endchar
          </CharString>
          <CharString index="171">
            rlineto
            138 hlineto
            return
          </CharString>
          <CharString index="172">
            rmoveto
            -246 -150 -164 -202 -39 hvcurveto
            -39 -196 rlineto
            -8 -38 -1 -47 -38 vvcurveto
            -239 161 -153 215 176 89 110 78 36 vhcurveto
            12 hlineto
            return
          </CharString>
          <CharString index="173" raw="1">
            c11df750 06f61df7 1406d3f8 2a050b
          </CharString>
          <CharString index="174">
            -241 92 callsubr
            return
          </CharString>
          <CharString index="175">
            rmoveto
            -68 callgsubr
            return
          </CharString>
          <CharString index="176">
            -98 callgsubr
            149 hlineto
            return
          </CharString>
          <CharString index="177" raw="1">
            fbb115f7 1606f730 f7f794be 05fbce06
            75fb0d05 0b  
          </CharString>
          <CharString index="178">
            rlineto
            147 hlineto
            return
          </CharString>
          <CharString index="179">
            rmoveto
            114 hlineto
            342 347 rlineto
            -150 hlineto
            -377 -181 104 callgsubr
            endchar
          </CharString>
          <CharString index="180">
            130 callsubr
            1 return
          </CharString>
          <CharString index="181">
            -39 callgsubr
            -994 69 callsubr
            216 1232 rlineto
            698 88 callsubr
            endchar
          </CharString>
          <CharString index="182">
            rmoveto
            23 120 rlineto
            -939 hlineto
            -23 -120 rlineto
            endchar
          </CharString>
          <CharString index="183">
            385 844 122 callgsubr
            return
          </CharString>
          <CharString index="184">
            hhcurveto
            -178 -93 113 return
          </CharString>
          <CharString index="185">
            -9 -74 rlineto
            50 hlineto
            return
          </CharString>
          <CharString index="186">
            rmoveto
            -20 -111 rlineto
            284 hlineto
            -269 -1521 rlineto
            -283 hlineto
            -19 -111 rlineto
            420 hlineto
            308 1743 rlineto
            endchar
          </CharString>
          <CharString index="187">
            hlineto
            -24 -133 rlineto
            return
          </CharString>
          <CharString index="188">
            rmoveto
            16 118 rlineto
            -820 hlineto
            -19 -118 rlineto
            880 359 rmoveto
            22 120 rlineto
            -819 hlineto
            -21 -120 rlineto
            endchar
          </CharString>
          <CharString index="189" raw="1">
            15f7b61c 066c05fb 1006fbb6 1cf99405
            0b   
          </CharString>
          <CharString index="190">
            -149 89 callsubr
            return
          </CharString>
          <CharString index="191">
            rmoveto
            665 -483 28 153 -556 389 1 10 693 428 29 163 -837 -527 rlineto
            endchar
          </CharString>
          <CharString index="192">
            -49 callsubr
            endchar
          </CharString>
          <CharString index="193">
            rmoveto
            -2 -8 270 -402 rlineto
            160 hlineto
            -261 397 1 6 423 411 rlineto
            -172 hlineto
            endchar
          </CharString>
          <CharString index="194">
            rmoveto
            146 92 callgsubr
            return
          </CharString>
          <CharString index="195">
            hlineto
            -217 131 callgsubr
            return
          </CharString>
          <CharString index="196">
            78 callsubr
            73 -1 67 -15 -63 vvcurveto
            0 vlineto
            -64 return
          </CharString>
          <CharString index="197">
            rmoveto
            55 45 42 55 55 -45 42 -55 -55 return
          </CharString>
          <CharString index="198">
            -13 callgsubr
            -105 return
          </CharString>
          <CharString index="199">
            -1365 rlineto
            return
          </CharString>
          <CharString index="200" raw="1">
            fbb115f7 1d06f73f f80693bb 05fbdbdb
            0af73906 0b  
          </CharString>
          <CharString index="201">
            185 18 callgsubr
            return
          </CharString>
          <CharString index="202">
            108 -121 -168 -15 return
          </CharString>
          <CharString index="203">
            hlineto
            -20 -117 rlineto
            return
          </CharString>
          <CharString index="204" raw="1">
            f3f8db96 9da9f73f 05fb0f06 6dfb3f90
            7923fcdb 050b  
          </CharString>
          <CharString index="205">
            hlineto
            102 callgsubr
            -21 callgsubr
            return
          </CharString>
          <CharString index="206">
            240 -9 callsubr
            return
          </CharString>
          <CharString index="207">
            rlineto
            -159 hlineto
            return
          </CharString>
          <CharString index="208">
            rmoveto
            -72 57 -55 71 75 57 55 72 76 -57 55 -75 -71 -57 -55 -76 vhcurveto
            endchar
          </CharString>
          <CharString index="209">
            rmoveto
            -70 57 -55 68 74 55 55 70 74 -55 return
          </CharString>
          <CharString index="210">
            304 -50 callgsubr
            return
          </CharString>
          <CharString index="211">
            rmoveto
            -188 1704 rlineto
            -136 hlineto
            188 -1704 rlineto
            endchar
          </CharString>
          <CharString index="212">
            rmoveto
            308 1743 rlineto
            -136 hlineto
            -307 -1743 rlineto
            endchar
          </CharString>
          <CharString index="213">
            -182 288 329 return
          </CharString>
          <CharString index="214">
            -70 56 -55 68 74 56 55 70 74 -56 55 -74 -68 -56 -55 -74 vhcurveto
            return
          </CharString>
          <CharString index="215">
            -54 -43 -43 -52 -53 43 -42 54 54 43 42 53 52 -43 43 -54 hvcurveto
            return
          </CharString>
          <CharString index="216" raw="1">
            fb65f980 f8f015fc f8eb0af8 f7060b
          </CharString>
          <CharString index="217">
            99 -96 159 161 133 110 return
          </CharString>
          <CharString index="218">
            hvcurveto
            42 211 rlineto
            return
          </CharString>
          <CharString index="219">
            -68 -136 hhcurveto
            return
          </CharString>
          <CharString index="220">
            -10 rmoveto
            318 164 238 221 195 -131 176 return
          </CharString>
          <CharString index="221">
            66 108 58 128 hhcurveto
            152 84 -106 -164 -234 return
          </CharString>
          <CharString index="222">
            32 callsubr
            endchar
          </CharString>
          <CharString index="223">
            43 -54 -55 -42 -43 -54 vhcurveto
            return
          </CharString>
          <CharString index="224">
            -15 callgsubr
            hvcurveto
            return
          </CharString>
          <CharString index="225">
            74 0 hvcurveto
            8 hlineto
            return
          </CharString>
          <CharString index="226">
            vvcurveto
            142 hlineto
            1 return
          </CharString>
          <CharString index="227">
            rlineto
            -165 hlineto
            return
          </CharString>
          <CharString index="228">
            -23 -133 rlineto
            -196 -34 -108 -110 -161 hhcurveto
            return
          </CharString>
          <CharString index="229">
            hlineto
            152 878 rlineto
            -150 hlineto
            -345 -610 rlineto
            return
          </CharString>
          <CharString index="230">
            -141 hlineto
            -1 return
          </CharString>
          <CharString index="231">
            rlineto
            163 hlineto
            return
          </CharString>
          <CharString index="232">
            rlineto
            148 hlineto
            return
          </CharString>
          <CharString index="233" raw="1">
            f73705f7 c8c0f751 f729f793 1b0b
          </CharString>
          <CharString index="234" raw="1">
            fbb115f7 1d06f740 f80693bb 050b
          </CharString>
          <CharString index="235">
            189 rlineto
            12 hlineto
            -215 -1209 rlineto
            endchar
          </CharString>
          <CharString index="236">
            hlineto
            23 131 rlineto
            return
          </CharString>
          <CharString index="237">
            vvcurveto
            137 hlineto
            1 return
          </CharString>
          <CharString index="238">
            1437 rlineto
            return
          </CharString>
          <CharString index="239">
            rmoveto
            -92 -484 rlineto
            105 hlineto
            139 484 rlineto
            return
          </CharString>
          <CharString index="240">
            rmoveto
            532 306 -424 306 rlineto
            endchar
          </CharString>
          <CharString index="241">
            14 1 9 2 9 hvcurveto
            endchar
          </CharString>
          <CharString index="242">
            506 rlineto
            617 hlineto
            return
          </CharString>
          <CharString index="243">
            -43 43 -54 -55 -42 -43 return
          </CharString>
          <CharString index="244">
            445 -49 callsubr
            return
          </CharString>
          <CharString index="245">
            -319 56 callsubr
            return
          </CharString>
          <CharString index="246">
            rlineto
            158 hlineto
            return
          </CharString>
          <CharString index="247">
            rlineto
            165 hlineto
            return
          </CharString>
          <CharString index="248">
            22 125 rlineto
            -936 hlineto
            -22 -125 rlineto
            return
          </CharString>
          <CharString index="249">
            67 callgsubr
            vhcurveto
            return
          </CharString>
          <CharString index="250">
            hlineto
            -50 -286 rlineto
            return
          </CharString>
          <CharString index="251">
            hlineto
            -23 -131 return
          </CharString>
          <CharString index="252">
            rlineto
            -132 hlineto
            return
          </CharString>
          <CharString index="253">
            140 hhcurveto
            endchar
          </CharString>
          <CharString index="254" raw="1">
            76fb0d05 f71b1d0b  
          </CharString>
          <CharString index="255">
            128 105 66 121 hvcurveto
            0 vlineto
            103 return
          </CharString>
          <CharString index="256">
            56 -17 71 hhcurveto
            return
          </CharString>
          <CharString index="257" raw="1">
            1c047705 0b  
          </CharString>
        <CharString name=".notdef">
          899 -40 -494 44 callsubr
          22 124 44 callsubr
          22 124 44 callsubr
          endchar
        </CharString>
        <CharString name=".null">
          endchar
        </CharString>
        <CharString name="A">
          87 1 -103 callsubr
          endchar
        </CharString>
        <CharString name="AE">
          683 1044 -40 callsubr
          endchar
        </CharString>
        <CharString name="AEacute">
          683 1044 -40 callsubr
          512 1080 -74 callgsubr
        </CharString>
        <CharString name="AEmacron">
          683 1044 -40 callsubr
          912 1181 -40 callgsubr
        </CharString>
        <CharString name="Aacute">
          87 1 -103 callsubr
          -25 329 -74 callgsubr
        </CharString>
        <CharString name="Abreve">
          87 1 -103 callsubr
          -222 554 -73 callsubr
          endchar
        </CharString>
        <CharString name="Abreveacute">
          87 1 -103 callsubr
          -222 545 -37 callgsubr
          107 10 rmoveto
          117 hlineto
          223 206 rlineto
          -144 hlineto
          endchar
        </CharString>
        <CharString name="Abrevedotbelow">
          87 1 -103 callsubr
          -222 554 -73 callsubr
          -234 -1967 -96 callsubr
        </CharString>
        <CharString name="Abrevegrave">
          87 1 -103 callsubr
          -222 545 -37 callgsubr
          249 10 rmoveto
          -103 206 rlineto
          -137 hlineto
          131 -206 rlineto
          endchar
        </CharString>
        <CharString name="Abrevehookabove">
          87 1 -103 callsubr
          -222 545 -37 callgsubr
          57 128 rmoveto
          3 11 19 4 23 hhcurveto
          65 31 -19 -41 -29 -28 -32 -35 -9 hvcurveto
          45 -65 rlineto
          73 22 52 63 69 vvcurveto
          80 -61 43 -119 -19 -24 -5 -5 -17 vhcurveto
          endchar
        </CharString>
        <CharString name="Abrevetilde">
          87 1 -103 callsubr
          -206 529 19 callgsubr
        </CharString>
        <CharString name="Acaron">
          87 1 -103 callsubr
          432 548 -85 callgsubr
          endchar
        </CharString>
        <CharString name="Acircumflex">
          -43 callsubr
          endchar
        </CharString>
        <CharString name="Acircumflexacute">
          -43 callsubr
          243 -17 rmoveto
          120 hlineto
          265 230 rlineto
          -168 hlineto
          endchar
        </CharString>
        <CharString name="Acircumflexdotbelow">
          -43 callsubr
          -364 -1961 -96 callsubr
        </CharString>
        <CharString name="Acircumflexgrave">
          -43 callsubr
          462 -21 rmoveto
          -178 234 rlineto
          -163 hlineto
          225 -234 rlineto
          endchar
        </CharString>
        <CharString name="Acircumflexhookabove">
          -43 callsubr
          210 127 rmoveto
          3 10 18 3 22 hhcurveto
          66 31 -20 -40 -30 -31 -34 -39 -9 hvcurveto
          46 -65 rlineto
          79 24 53 64 70 vvcurveto
          78 -61 43 -121 -16 -22 -3 -4 -19 vhcurveto
          endchar
        </CharString>
        <CharString name="Acircumflextilde">
          87 1 -103 callsubr
          -278 319 -15 callsubr
        </CharString>
        <CharString name="Acyrillic">
          107 11 -103 callsubr
          endchar
        </CharString>
        <CharString name="Adblgrave">
          87 1 -103 callsubr
          -33 329 rmoveto
          -64 callsubr
          385 hmoveto
          -64 callsubr
          endchar
        </CharString>
        <CharString name="Adieresis">
          87 1 -103 callsubr
          -193 394 -101 callgsubr
          endchar
        </CharString>
        <CharString name="Adieresismacron">
          87 1 -103 callsubr
          415 701 -22 callgsubr
        </CharString>
        <CharString name="Adotaccent">
          87 1 -103 callsubr
          -27 398 -78 callgsubr
        </CharString>
        <CharString name="Adotbelow">
          87 1 -103 callsubr
          -344 -1413 -96 callsubr
        </CharString>
        <CharString name="Adotmacron">
          87 1 -103 callsubr
          -27 395 31 callsubr
        </CharString>
        <CharString name="Agrave">
          87 1 -103 callsubr
          112 329 rmoveto
          -64 callsubr
          endchar
        </CharString>
        <CharString name="Ahookabove">
          87 1 -103 callsubr
          -51 539 -62 callgsubr
          endchar
        </CharString>
        <CharString name="Ainvertedbreve">
          87 1 -103 callsubr
          371 305 -54 callsubr
          endchar
        </CharString>
        <CharString name="Alphagreek">
          88 1 -103 callsubr
          endchar
        </CharString>
        <CharString name="Alphatonosgreek">
          87 1 -103 callsubr
          -560 -168 -27 callgsubr
        </CharString>
        <CharString name="Amacron">
          87 1 -103 callsubr
          375 430 -40 callgsubr
        </CharString>
        <CharString name="Aogonek">
          87 976 -373 rmoveto
          53 45 11 8 18 hvcurveto
          17 101 rlineto
          -6 -25 -34 -4 -23 hhcurveto
          -62 -39 29 56 107 108 69 96 22 hvcurveto
          -243 1345 100 callgsubr
          -729 92 callsubr
          161 hlineto
          222 428 rlineto
          527 hlineto
          64 -382 rlineto
          0 vlineto
          0 vlineto
          -91 -44 -94 -76 -136 vvcurveto
          -97 76 -66 110 vhcurveto
          -190 1555 rmoveto
          104 -632 68 callgsubr
          326 632 rlineto
          endchar
        </CharString>
        <CharString name="Aring">
          87 1 -103 callsubr
          86 381 25 callsubr
        </CharString>
        <CharString name="Aringacute">
          87 1 -103 callsubr
          51 629 40 callgsubr
        </CharString>
        <CharString name="Aringbelow">
          87 1 -103 callsubr
          -253 -1573 -69 callgsubr
        </CharString>
        <CharString name="Atilde">
          87 1 -103 callsubr
          181 284 -85 callsubr
          endchar
        </CharString>
        <CharString name="B">
          123 147 -80 callsubr
          endchar
        </CharString>
        <CharString name="Bdotaccent">
          123 147 -80 callsubr
          408 1448 -78 callgsubr
        </CharString>
        <CharString name="Bdotbelow">
          123 147 -80 callsubr
          128 -363 -96 callsubr
        </CharString>
        <CharString name="Becyrillic">
          76 582 hmoveto
          333 179 134 260 33 hvcurveto
          4 111 callgsubr
          187 -137 149 -257 vhcurveto
          -290 hlineto
          74 420 rlineto
          648 hlineto
          24 134 rlineto
          -796 -98 callgsubr
          171 132 rmoveto
          97 547 rlineto
          288 hlineto
          198 72 -100 -117 -18 -2 -31 -4 -21 hvcurveto
          -141 -16 -100 -119 -260 hhcurveto
          endchar
        </CharString>
        <CharString name="Betagreek">
          123 147 -80 callsubr
          endchar
        </CharString>
        <CharString name="Blinebelow">
          123 147 -80 callsubr
          494 -453 -71 callgsubr
        </CharString>
        <CharString name="C">
          141 390 -2 callgsubr
        </CharString>
        <CharString name="Cacute">
          141 390 -93 callsubr
          415 858 -74 callgsubr
        </CharString>
        <CharString name="Ccaron">
          141 390 -93 callsubr
          872 1077 -85 callgsubr
          endchar
        </CharString>
        <CharString name="Ccedilla">
          141 617 -71 callsubr
          endchar
        </CharString>
        <CharString name="Ccedillaacute">
          141 617 -71 callsubr
          146 1995 -74 callgsubr
        </CharString>
        <CharString name="Ccircumflex">
          141 390 -93 callsubr
          162 848 -60 callsubr
        </CharString>
        <CharString name="Cdotaccent">
          141 390 -93 callsubr
          413 927 -78 callgsubr
        </CharString>
        <CharString name="Checyrillic">
          29 callsubr
          endchar
        </CharString>
        <CharString name="Chigreek">
          63 1165 1365 -58 callsubr
          endchar
        </CharString>
        <CharString name="D">
          204 -97 callsubr
          endchar
        </CharString>
        <CharString name="Dcaron">
          204 -97 callsubr
          896 1598 -85 callgsubr
          endchar
        </CharString>
        <CharString name="Dcircumflexbelow">
          204 -97 callsubr
          -134 -525 -63 callsubr
          endchar
        </CharString>
        <CharString name="Dcommaaccent">
          204 -97 callsubr
          209 -580 -30 callsubr
        </CharString>
        <CharString name="Dcroat">
          -3 callsubr
        </CharString>
        <CharString name="Ddotaccent">
          204 -97 callsubr
          437 1448 -78 callgsubr
        </CharString>
        <CharString name="Ddotbelow">
          204 -97 callsubr
          133 -363 -96 callsubr
        </CharString>
        <CharString name="Decyrillic">
          278 994 133 rmoveto
          -676 hlineto
          2 6 114 117 52 244 86 413 rlinecurve
          66 319 rlineto
          550 hlineto
          -1106 -1518 rmoveto
          50 286 rlineto
          1034 17 callsubr
          -180 hlineto
          218 1232 rlineto
          -844 hlineto
          -88 -440 -103 -514 -46 -191 -145 -87 rlinecurve
          -112 hlineto
          -73 -419 rlineto
          endchar
        </CharString>
        <CharString name="Deltagreek">
          93 1139 99 rmoveto
          -249 1266 100 callgsubr
          -698 -1267 -17 -98 rlineto
          1103 hlineto
          -333 1182 rmoveto
          197 -1061 rlineto
          -779 hlineto
          571 1061 rlineto
          endchar
        </CharString>
        <CharString name="Djecyrillic">
          388 951 113 callsubr
          -284 -137 -98 -52 -55 -67 hvcurveto
          -6 hlineto
          92 520 rlineto
          431 hlineto
          21 132 rlineto
          -1009 hlineto
          -23 -132 rlineto
          432 hlineto
          -218 -1233 125 callsubr
          101 571 rlineto
          60 66 117 61 134 hhcurveto
          191 90 -116 -132 -163 -110 71 callgsubr
          endchar
        </CharString>
        <CharString name="Dlinebelow">
          204 -97 callsubr
          499 -453 -71 callgsubr
        </CharString>
        <CharString name="Dzecyrillic">
          49 146 378 rmoveto
          -103 callgsubr
          endchar
        </CharString>
        <CharString name="Dzhecyrillic">
          273 591 hmoveto
          -50 -286 rlineto
          134 hlineto
          50 286 rlineto
          436 hlineto
          240 128 callgsubr
          -707 hlineto
          217 1232 rlineto
          -148 -98 callgsubr
          endchar
        </CharString>
        <CharString name="E">
          -19 968 -102 callgsubr
          endchar
        </CharString>
        <CharString name="Eacute">
          -19 968 -102 callgsubr
          -231 1511 -74 callgsubr
        </CharString>
        <CharString name="Ebreve">
          -19 968 -102 callgsubr
          -428 1736 -73 callsubr
          endchar
        </CharString>
        <CharString name="Ecaron">
          -19 968 -102 callgsubr
          226 1730 -85 callgsubr
          endchar
        </CharString>
        <CharString name="Ecedilla">
          6 callsubr
          endchar
        </CharString>
        <CharString name="Ecedillabreve">
          6 callsubr
          371 1736 -73 callsubr
          endchar
        </CharString>
        <CharString name="Ecircumflex">
          -19 968 -102 callgsubr
          -484 13 callgsubr
        </CharString>
        <CharString name="Ecircumflexacute">
          -19 968 -102 callgsubr
          -484 1501 -91 callsubr
          243 -17 rmoveto
          120 hlineto
          265 230 rlineto
          -168 hlineto
          endchar
        </CharString>
        <CharString name="Ecircumflexbelow">
          -19 968 -102 callgsubr
          -805 -393 -63 callsubr
          endchar
        </CharString>
        <CharString name="Ecircumflexdotbelow">
          -19 968 -102 callgsubr
          -484 1501 -91 callsubr
          -352 -1961 -96 callsubr
        </CharString>
        <CharString name="Ecircumflexgrave">
          -19 968 -102 callgsubr
          -484 1501 -91 callsubr
          462 -21 rmoveto
          -178 234 rlineto
          -163 hlineto
          225 -234 rlineto
          endchar
        </CharString>
        <CharString name="Ecircumflexhookabove">
          -19 968 -102 callgsubr
          -484 1501 -91 callsubr
          210 127 rmoveto
          3 10 18 3 22 hhcurveto
          66 31 -20 -40 -30 -31 -34 -39 -9 hvcurveto
          46 -65 rlineto
          79 24 53 64 70 vvcurveto
          78 -61 43 -121 -16 -22 -3 -4 -19 vhcurveto
          endchar
        </CharString>
        <CharString name="Ecircumflextilde">
          -19 968 -102 callgsubr
          -484 1501 -15 callsubr
        </CharString>
        <CharString name="Ecyrillic">
          -16 callgsubr
          endchar
        </CharString>
        <CharString name="Edblgrave">
          -19 968 -102 callgsubr
          -239 1511 rmoveto
          -64 callsubr
          385 hmoveto
          -64 callsubr
          endchar
        </CharString>
        <CharString name="Edieresis">
          -19 968 -102 callgsubr
          -399 1576 -101 callgsubr
          endchar
        </CharString>
        <CharString name="Edotaccent">
          -19 968 -102 callgsubr
          -233 1580 -78 callgsubr
        </CharString>
        <CharString name="Edotbelow">
          -19 968 -102 callgsubr
          -538 45 callgsubr
          endchar
        </CharString>
        <CharString name="Efcyrillic">
          409 1017 1227 rmoveto
          26 148 rlineto
          -148 hlineto
          -25 -140 rlineto
          -24 hlineto
          -371 -219 -187 -275 -41 hvcurveto
          -12 -85 rlineto
          -1 -6 -1 -7 -5 vvcurveto
          -34 -266 189 -221 323 -35 -25 -158 rcurveline
          148 hlineto
          24 150 rlineto
          24 hlineto
          371 1 218 186 42 276 12 85 rcurveline
          1 6 1 7 5 vvcurveto
          34 266 -189 220 -323 35 rrcurveto
          -665 -544 rmoveto
          5 1 6 1 6 vhcurveto
          6 46 38 263 194 95 255 2 rlinecurve
          -145 -830 -230 29 -151 127 31 251 rlinecurve
          990 -8 rmoveto
          -6 -46 -38 -263 -194 -94 -255 -3 rlinecurve
          145 830 230 -29 151 -126 -31 -251 rlinecurve
          -6 -1 -6 -1 -6 vhcurveto
          endchar
        </CharString>
        <CharString name="Egrave">
          -19 968 -102 callgsubr
          -94 1511 rmoveto
          -64 callsubr
          endchar
        </CharString>
        <CharString name="Ehookabove">
          -19 968 -102 callgsubr
          -257 1721 -62 callgsubr
          endchar
        </CharString>
        <CharString name="Einvertedbreve">
          -19 968 -102 callgsubr
          165 1487 -54 callsubr
          endchar
        </CharString>
        <CharString name="Elcyrillic">
          195 422 926 -45 callsubr
        </CharString>
        <CharString name="Emacron">
          -19 968 -102 callgsubr
          169 1612 -40 callgsubr
        </CharString>
        <CharString name="Emacronacute">
          -19 968 -102 callgsubr
          -218 1728 47 callsubr
        </CharString>
        <CharString name="Emacrongrave">
          -19 968 -102 callgsubr
          170 1612 43 callgsubr
        </CharString>
        <CharString name="Emcyrillic">
          502 297 34 callgsubr
        </CharString>
        <CharString name="Encyrillic">
          283 305 53 callgsubr
        </CharString>
        <CharString name="Eogonek">
          -19 772 -371 rmoveto
          45 44 8 10 26 hvcurveto
          17 102 rlineto
          -6 -21 -33 -4 -27 hhcurveto
          -66 -38 30 55 121 142 61 90 25 hvcurveto
          18 101 rlineto
          -652 133 callgsubr
          -615 hlineto
          82 463 rlineto
          647 hlineto
          23 132 rlineto
          -795 -98 callgsubr
          570 0 hlineto
          -85 -55 -45 -73 -88 vvcurveto
          -107 84 -48 102 vhcurveto
          endchar
        </CharString>
        <CharString name="Epsilongreek">
          -19 968 -102 callgsubr
          endchar
        </CharString>
        <CharString name="Epsilontonosgreek">
          244 1231 -102 callgsubr
          -1023 1014 -27 callgsubr
        </CharString>
        <CharString name="Ercyrillic">
          57 304 hmoveto
          -78 callsubr
          endchar
        </CharString>
        <CharString name="Ereversedcyrillic">
          -92 callgsubr
          endchar
        </CharString>
        <CharString name="Escyrillic">
          161 400 -2 callgsubr
        </CharString>
        <CharString name="Etagreek">
          263 295 53 callgsubr
        </CharString>
        <CharString name="Etatonosgreek">
          526 559 hmoveto
          -87 callsubr
          -225 1014 -27 callgsubr
        </CharString>
        <CharString name="Eth">
          -3 callsubr
        </CharString>
        <CharString name="Etilde">
          -19 968 -102 callgsubr
          -25 1466 -85 callsubr
          endchar
        </CharString>
        <CharString name="Etildebelow">
          -19 968 -102 callgsubr
          -336 -421 -61 callsubr
          endchar
        </CharString>
        <CharString name="Euro">
          -35 1205 1355 rmoveto
          26 -69 -95 12 -91 hhcurveto
          -305 -229 -160 -329 -88 hvcurveto
          -145 hlineto
          -20 -117 rlineto
          140 hlineto
          -24 -138 -2 -12 -2 -13 -2 -14 rlinecurve
          -142 hlineto
          -20 -116 rlineto
          153 hlineto
          -11 0 -10 -9 vvcurveto
          -307 254 -186 293 44 67 4 8 40 vhcurveto
          23 132 rlineto
          -7 -37 -67 -4 -45 hhcurveto
          -245 -181 127 246 hvcurveto
          5 0 6 6 vvcurveto
          447 hlineto
          21 116 rlineto
          -458 hlineto
          2 10 1 11 2 9 25 147 rcurveline
          459 hlineto
          21 117 rlineto
          -453 hlineto
          240 74 174 116 225 hhcurveto
          86 81 -14 -23 65 hvcurveto
          endchar
        </CharString>
        <CharString name="F">
          -43 295 28 callgsubr
          endchar
        </CharString>
        <CharString name="Fdotaccent">
          -43 295 28 callgsubr
          558 1580 -78 callgsubr
        </CharString>
        <CharString name="G">
          -97 callgsubr
          endchar
        </CharString>
        <CharString name="Gacute">
          -97 callgsubr
          513 619 -74 callgsubr
        </CharString>
        <CharString name="Gammagreek">
          -63 146 hmoveto
          148 hlineto
          220 1233 rlineto
          623 hlineto
          24 132 rlineto
          -772 hlineto
          endchar
        </CharString>
        <CharString name="Gbreve">
          -97 callgsubr
          316 844 -73 callsubr
          endchar
        </CharString>
        <CharString name="Gcaron">
          -97 callgsubr
          970 838 -85 callgsubr
          endchar
        </CharString>
        <CharString name="Gcircumflex">
          -97 callgsubr
          260 609 -60 callsubr
        </CharString>
        <CharString name="Gcommaaccent">
          -97 callgsubr
          368 -1340 -30 callsubr
        </CharString>
        <CharString name="Gdotaccent">
          -97 callgsubr
          511 688 -78 callgsubr
        </CharString>
        <CharString name="Gecyrillic">
          -70 305 hmoveto
          22 callsubr
          endchar
        </CharString>
        <CharString name="Geupturncyrillic">
          -70 1054 -10 callsubr
          -657 -98 callgsubr
          147 hlineto
          217 1231 rlineto
          643 hlineto
          74 419 101 callgsubr
          endchar
        </CharString>
        <CharString name="Gjecyrillic">
          -70 305 hmoveto
          22 callsubr
          587 1511 -74 callgsubr
        </CharString>
        <CharString name="Gmacron">
          -97 callgsubr
          913 720 -40 callgsubr
        </CharString>
        <CharString name="H">
          263 295 53 callgsubr
        </CharString>
        <CharString name="Hardsigncyrillic">
          250 906 717 rmoveto
          199 71 -113 -132 -18 -2 -31 -3 -21 hvcurveto
          -146 -17 -100 -124 -260 145 callgsubr
          104 585 rlineto
          -275 -717 rmoveto
          424 hlineto
          334 178 138 266 34 hvcurveto
          3 111 callgsubr
          203 -137 161 -257 vhcurveto
          -283 hlineto
          91 515 rlineto
          -493 80 callsubr
          345 hlineto
          endchar
        </CharString>
        <CharString name="Hbar">
          265 433 775 rmoveto
          39 220 rlineto
          717 hlineto
          -39 -220 rlineto
          -740 -131 rmoveto
          717 hlineto
          -108 -644 rlineto
          143 hlineto
          175 995 rlineto
          97 129 callsubr
          -96 hlineto
          42 239 rlineto
          -148 hlineto
          -43 -239 rlineto
          -717 hlineto
          42 239 rlineto
          -148 hlineto
          -42 -239 rlineto
          -99 144 callsubr
          rlineto
          98 hlineto
          -175 -995 125 callsubr
          endchar
        </CharString>
        <CharString name="Hbrevebelow">
          263 295 hmoveto
          -87 callsubr
          194 -118 19 callsubr
        </CharString>
        <CharString name="Hcaron">
          263 295 hmoveto
          -87 callsubr
          1148 1730 -85 callgsubr
          endchar
        </CharString>
        <CharString name="Hcedilla">
          263 182 hmoveto
          -49 83 callsubr
          -63 -17 -52 -40 -53 9 12 -39 vhcurveto
          -16 -94 rlineto
          -11 31 149 callsubr
          127 105 42 callgsubr
          44 141 114 644 rlineto
          716 hlineto
          -107 -644 rlineto
          142 hlineto
          91 callsubr
          -590 rlineto
          -716 -38 callgsubr
          endchar
        </CharString>
        <CharString name="Hcircumflex">
          263 295 hmoveto
          -87 callsubr
          438 13 callgsubr
        </CharString>
        <CharString name="Hdieresis">
          263 295 hmoveto
          -87 callsubr
          523 1576 -101 callgsubr
          endchar
        </CharString>
        <CharString name="Hdotaccent">
          263 295 hmoveto
          -87 callsubr
          689 1580 -78 callgsubr
        </CharString>
        <CharString name="Hdotbelow">
          263 295 hmoveto
          -87 callsubr
          370 45 callgsubr
          endchar
        </CharString>
        <CharString name="I">
          -601 -57 callgsubr
          endchar
        </CharString>
        <CharString name="I.1">
          -237 979 1241 rmoveto
          21 124 rlineto
          -282 hlineto
          -148 hlineto
          -282 hlineto
          -21 -124 rlineto
          281 hlineto
          -196 -1112 rlineto
          -282 hlineto
          -23 -129 rlineto
          282 hlineto
          148 hlineto
          282 hlineto
          23 129 rlineto
          -282 hlineto
          196 1112 rlineto
          endchar
        </CharString>
        <CharString name="IAcyrillic">
          -70 callgsubr
          endchar
        </CharString>
        <CharString name="IJ">
          399 -57 callgsubr
          1391 -67 callsubr
          endchar
        </CharString>
        <CharString name="IJacute">
          399 -57 callgsubr
          1391 -67 callsubr
          -928 1171 56 callsubr
          331 319 rlineto
          -158 hlineto
          711 -319 -74 callgsubr
        </CharString>
        <CharString name="IUcyrillic">
          -90 callsubr
          endchar
        </CharString>
        <CharString name="Iacute">
          -601 -57 callgsubr
          261 1511 -74 callgsubr
        </CharString>
        <CharString name="Iacute.1">
          -236 1017 1831 rmoveto
          -158 hlineto
          -296 -319 rlineto
          123 hlineto
          -116 -147 rmoveto
          -282 hlineto
          -21 -124 rlineto
          281 hlineto
          -196 -1112 rlineto
          -282 hlineto
          -23 -129 rlineto
          282 hlineto
          148 hlineto
          282 hlineto
          23 129 rlineto
          -282 hlineto
          196 1112 rlineto
          283 hlineto
          21 124 rlineto
          -282 hlineto
          endchar
        </CharString>
        <CharString name="Ibreve">
          -601 -57 callgsubr
          64 1736 -73 callsubr
          endchar
        </CharString>
        <CharString name="Ibreve.1">
          -236 915 1737 rmoveto
          -85 -15 -81 -67 -114 hhcurveto
          -119 -61 62 85 hvcurveto
          5 -112 vlineto
          -1 -10 -1 -9 -7 vvcurveto
          -126 120 -97 160 184 135 110 139 16 vhcurveto
          -456 -372 rmoveto
          -282 hlineto
          -21 -124 rlineto
          281 hlineto
          -196 -1112 rlineto
          -282 hlineto
          -23 -129 rlineto
          282 hlineto
          148 hlineto
          282 hlineto
          23 129 rlineto
          -282 hlineto
          196 1112 rlineto
          283 hlineto
          21 124 rlineto
          -282 hlineto
          endchar
        </CharString>
        <CharString name="Icaron">
          -601 -57 callgsubr
          718 1730 -85 callgsubr
          endchar
        </CharString>
        <CharString name="Icaron.1">
          -236 750 1502 rmoveto
          299 229 rlineto
          -163 hlineto
          -193 -150 rlineto
          -10 hlineto
          -139 150 rlineto
          -150 hlineto
          216 -229 rlineto
          -40 -137 rmoveto
          -282 hlineto
          -21 -124 rlineto
          281 hlineto
          -196 -1112 rlineto
          -282 hlineto
          -23 -129 rlineto
          282 hlineto
          148 hlineto
          282 hlineto
          23 129 rlineto
          -282 hlineto
          196 1112 rlineto
          283 hlineto
          21 124 rlineto
          -282 hlineto
          endchar
        </CharString>
        <CharString name="Icircumflex">
          -601 -57 callgsubr
          8 13 callgsubr
        </CharString>
        <CharString name="Icircumflex.1">
          -236 693 1652 rmoveto
          10 hlineto
          139 -150 rlineto
          150 hlineto
          -216 229 rlineto
          -141 hlineto
          -298 -229 rlineto
          162 hlineto
          480 -261 rmoveto
          21 124 rlineto
          -282 hlineto
          -148 hlineto
          -282 hlineto
          -21 -124 rlineto
          281 hlineto
          -196 -1112 rlineto
          -282 hlineto
          -23 -129 rlineto
          282 hlineto
          148 hlineto
          282 hlineto
          23 129 rlineto
          -282 hlineto
          196 1112 rlineto
          endchar
        </CharString>
        <CharString name="Icyrillic">
          -583 103 callsubr
          endchar
        </CharString>
        <CharString name="Icyrillic.1">
          -217 989 1241 rmoveto
          21 124 rlineto
          -282 hlineto
          -148 hlineto
          -282 hlineto
          -21 -124 rlineto
          281 hlineto
          -196 -1112 rlineto
          -282 hlineto
          -23 -129 rlineto
          282 hlineto
          148 hlineto
          282 hlineto
          23 129 rlineto
          -282 hlineto
          196 1112 rlineto
          endchar
        </CharString>
        <CharString name="Idblgrave">
          -601 -57 callgsubr
          253 1511 rmoveto
          -64 callsubr
          385 hmoveto
          -64 callsubr
          endchar
        </CharString>
        <CharString name="Idblgrave.1">
          -236 836 1512 rmoveto
          -184 319 rlineto
          -146 hlineto
          219 -319 rlineto
          -163 0 rmoveto
          -184 319 rlineto
          -146 hlineto
          219 -319 rlineto
          528 -271 rmoveto
          21 124 rlineto
          -282 hlineto
          -148 hlineto
          -282 hlineto
          -21 -124 rlineto
          281 hlineto
          -196 -1112 rlineto
          -282 hlineto
          -23 -129 rlineto
          282 hlineto
          148 hlineto
          282 hlineto
          23 129 rlineto
          -282 hlineto
          196 1112 rlineto
          endchar
        </CharString>
        <CharString name="Idieresis">
          -601 295 36 callsubr
        </CharString>
        <CharString name="Idieresis.1">
          -236 852 1481 rmoveto
          54 43 43 53 52 -43 43 -54 -55 -42 -43 -52 -53 42 -43 55 hvcurveto
          -331 0 rmoveto
          54 42 43 53 52 -42 43 -54 -55 -42 -43 -52 -53 42 -43 55 hvcurveto
          458 -240 rmoveto
          21 124 rlineto
          -282 hlineto
          -148 hlineto
          -282 hlineto
          -21 -124 rlineto
          281 hlineto
          -196 -1112 rlineto
          -282 hlineto
          -23 -129 rlineto
          282 hlineto
          148 hlineto
          282 hlineto
          23 129 rlineto
          -282 hlineto
          196 1112 rlineto
          endchar
        </CharString>
        <CharString name="Idieresisacute">
          -601 -57 callgsubr
          282 1742 -23 callsubr
          endchar
        </CharString>
        <CharString name="Idieresisacute.1">
          -236 1108 1944 rmoveto
          -194 hlineto
          -302 -201 rlineto
          166 hlineto
          -24 -165 rmoveto
          -53 42 -44 55 54 43 44 53 54 -43 43 -54 -55 -42 -43 -54 vhcurveto
          -234 -97 rmoveto
          54 42 44 53 54 -42 43 -54 -55 -42 -43 -54 -53 42 -44 55 hvcurveto
          50 -116 rmoveto
          -282 hlineto
          -21 -124 rlineto
          281 hlineto
          -196 -1112 rlineto
          -282 hlineto
          -23 -129 rlineto
          282 hlineto
          148 hlineto
          282 hlineto
          23 129 rlineto
          -282 hlineto
          196 1112 rlineto
          283 hlineto
          21 124 rlineto
          -282 hlineto
          endchar
        </CharString>
        <CharString name="Idotaccent">
          -601 -57 callgsubr
          259 1580 -78 callgsubr
        </CharString>
        <CharString name="Idotaccent.1">
          -236 678 1483 rmoveto
          54 43 44 54 53 -43 45 -54 -55 -43 -45 -53 -54 43 -44 55 hvcurveto
          301 -242 rmoveto
          21 124 rlineto
          -282 hlineto
          -148 hlineto
          -282 hlineto
          -21 -124 rlineto
          281 hlineto
          -196 -1112 rlineto
          -282 hlineto
          -23 -129 rlineto
          282 hlineto
          148 hlineto
          282 hlineto
          23 129 rlineto
          -282 hlineto
          196 1112 rlineto
          endchar
        </CharString>
        <CharString name="Idotbelow">
          -601 -57 callgsubr
          -62 45 callgsubr
          endchar
        </CharString>
        <CharString name="Idotbelow.1">
          -236 377 -135 rmoveto
          -57 -41 -40 -56 -57 41 -38 57 58 41 38 57 56 -41 40 -58 hvcurveto
          602 1376 rmoveto
          21 124 rlineto
          -282 hlineto
          -148 hlineto
          -282 hlineto
          -21 -124 rlineto
          281 hlineto
          -196 -1112 rlineto
          -282 hlineto
          -23 -129 rlineto
          282 hlineto
          148 hlineto
          282 hlineto
          23 129 rlineto
          -282 hlineto
          196 1112 rlineto
          endchar
        </CharString>
        <CharString name="Iecyrillic">
          1 978 -102 callgsubr
          endchar
        </CharString>
        <CharString name="Igrave">
          -601 -57 callgsubr
          398 1511 rmoveto
          -64 callsubr
          endchar
        </CharString>
        <CharString name="Igrave.1">
          -236 763 1512 rmoveto
          -184 319 rlineto
          -146 hlineto
          219 -319 rlineto
          327 -271 rmoveto
          21 124 rlineto
          -282 hlineto
          -148 hlineto
          -282 hlineto
          -21 -124 rlineto
          281 hlineto
          -196 -1112 rlineto
          -282 hlineto
          -23 -129 rlineto
          282 hlineto
          148 hlineto
          282 hlineto
          23 129 rlineto
          -282 hlineto
          196 1112 rlineto
          endchar
        </CharString>
        <CharString name="Ihookabove">
          -601 -57 callgsubr
          235 1721 -62 callgsubr
          endchar
        </CharString>
        <CharString name="Ihookabove.1">
          -236 690 1460 rmoveto
          113 38 70 79 94 vvcurveto
          92 -77 58 -122 -32 -32 -5 -7 -24 vhcurveto
          -15 -90 rlineto
          6 20 28 4 31 hhcurveto
          69 43 -27 -47 -46 -35 -34 -82 -37 hvcurveto
          334 -297 rmoveto
          21 124 rlineto
          -282 hlineto
          -148 hlineto
          -282 hlineto
          -21 -124 rlineto
          281 hlineto
          -196 -1112 rlineto
          -282 hlineto
          -23 -129 rlineto
          282 hlineto
          148 hlineto
          282 hlineto
          23 129 rlineto
          -282 hlineto
          196 1112 rlineto
          endchar
        </CharString>
        <CharString name="Iicyrillic">
          283 1024 hmoveto
          -57 callsubr
          endchar
        </CharString>
        <CharString name="Iinvertedbreve">
          -601 -57 callgsubr
          657 1487 -54 callsubr
          endchar
        </CharString>
        <CharString name="Iinvertedbreve.1">
          -236 854 1488 rmoveto
          111 hlineto
          1 10 1 9 7 vvcurveto
          126 -120 97 -160 -184 -135 -110 -139 -16 vhcurveto
          112 hlineto
          85 14 81 67 114 hhcurveto
          119 62 -62 -85 hvcurveto
          125 -252 rmoveto
          21 124 rlineto
          -282 hlineto
          -148 hlineto
          -282 hlineto
          -21 -124 rlineto
          281 hlineto
          -196 -1112 rlineto
          -282 hlineto
          -23 -129 rlineto
          282 hlineto
          148 hlineto
          282 hlineto
          23 129 rlineto
          -282 hlineto
          196 1112 rlineto
          endchar
        </CharString>
        <CharString name="Iishortcyrillic">
          283 1024 hmoveto
          -57 callsubr
          -576 639 -82 callsubr
          endchar
        </CharString>
        <CharString name="Imacron">
          -601 -57 callgsubr
          661 1612 -40 callgsubr
        </CharString>
        <CharString name="Imacron.1">
          -236 989 1613 rmoveto
          -594 hlineto
          -21 -97 rlineto
          595 hlineto
          10 -275 rmoveto
          21 124 rlineto
          -282 hlineto
          -148 hlineto
          -282 hlineto
          -21 -124 rlineto
          281 hlineto
          -196 -1112 rlineto
          -282 hlineto
          -23 -129 rlineto
          282 hlineto
          148 hlineto
          282 hlineto
          23 129 rlineto
          -282 hlineto
          196 1112 rlineto
          endchar
        </CharString>
        <CharString name="Iocyrillic">
          1 978 -102 callgsubr
          -399 1576 -101 callgsubr
          endchar
        </CharString>
        <CharString name="Iogonek">
          -601 261 -344 rmoveto
          18 101 rlineto
          -6 -25 -34 -4 -23 hhcurveto
          -61 -39 30 57 1 hvcurveto
          2 103 100 62 99 21 237 1345 rcurveline
          -148 hlineto
          -232 -1313 rlineto
          0 vlineto
          0 vlineto
          -90 -36 -101 -72 -3 -140 rrcurveto
          -99 -2 76 -68 109 hhcurveto
          53 45 11 8 18 hvcurveto
          endchar
        </CharString>
        <CharString name="Iogonek.1">
          -236 602 -373 rmoveto
          43 50 8 11 23 hvcurveto
          17 101 rlineto
          -6 -23 -33 -4 -26 hhcurveto
          -65 -37 31 54 89 81 76 131 33 hvcurveto
          19 109 rlineto
          -282 hlineto
          196 1112 rlineto
          283 29 callgsubr
          -712 hlineto
          -21 -124 rlineto
          281 hlineto
          -196 -1112 rlineto
          -282 hlineto
          -23 -129 rlineto
          498 -9 hlineto
          -80 -49 -50 -75 -77 vvcurveto
          -96 77 -67 110 vhcurveto
          endchar
        </CharString>
        <CharString name="Iotadieresisgreek">
          -609 288 36 callsubr
        </CharString>
        <CharString name="Iotadieresisgreek.1">
          -236 852 1481 rmoveto
          54 43 43 53 52 -43 43 -54 -55 -42 -43 -52 -53 42 -43 55 hvcurveto
          -331 0 rmoveto
          54 42 43 53 52 -42 43 -54 -55 -42 -43 -52 -53 42 -43 55 hvcurveto
          458 -240 rmoveto
          21 124 rlineto
          -282 hlineto
          -148 hlineto
          -282 hlineto
          -21 -124 rlineto
          281 hlineto
          -196 -1112 rlineto
          -282 hlineto
          -23 -129 rlineto
          282 hlineto
          148 hlineto
          282 hlineto
          23 129 rlineto
          -282 hlineto
          196 1112 rlineto
          endchar
        </CharString>
        <CharString name="Iotagreek">
          -598 -57 callgsubr
          endchar
        </CharString>
        <CharString name="Iotagreek.1">
          -236 979 1241 rmoveto
          21 124 rlineto
          -282 hlineto
          -148 hlineto
          -282 hlineto
          -21 -124 rlineto
          281 hlineto
          -196 -1112 rlineto
          -282 hlineto
          -23 -129 rlineto
          282 hlineto
          148 hlineto
          282 hlineto
          23 129 rlineto
          -282 hlineto
          196 1112 rlineto
          endchar
        </CharString>
        <CharString name="Iotatonosgreek">
          -339 559 -50 callgsubr
          -226 1014 -27 callgsubr
        </CharString>
        <CharString name="Iotatonosgreek.1">
          94 355 1365 rmoveto
          -169 -351 rlineto
          113 hlineto
          221 351 rlineto
          790 -124 rmoveto
          21 124 rlineto
          -282 hlineto
          -148 hlineto
          -282 hlineto
          -21 -124 rlineto
          281 hlineto
          -196 -1112 rlineto
          -282 hlineto
          -23 -129 rlineto
          282 hlineto
          148 hlineto
          282 hlineto
          23 129 rlineto
          -282 hlineto
          196 1112 rlineto
          endchar
        </CharString>
        <CharString name="Itilde">
          -601 -57 callgsubr
          467 1466 -85 callsubr
          endchar
        </CharString>
        <CharString name="Itilde.1">
          -236 890 1663 rmoveto
          -65 -9 -28 -40 -45 hhcurveto
          -76 -10 120 -147 hhcurveto
          -103 -70 -83 -114 -12 hvcurveto
          103 hlineto
          65 8 25 40 49 hhcurveto
          83 9 -119 141 hhcurveto
          107 69 96 100 8 hvcurveto
          -13 -422 rmoveto
          21 124 rlineto
          -282 hlineto
          -148 hlineto
          -282 hlineto
          -21 -124 rlineto
          281 hlineto
          -196 -1112 rlineto
          -282 hlineto
          -23 -129 rlineto
          282 hlineto
          148 hlineto
          282 hlineto
          23 129 rlineto
          -282 hlineto
          196 1112 rlineto
          endchar
        </CharString>
        <CharString name="Itildebelow">
          -601 -57 callgsubr
          140 -421 -61 callsubr
          endchar
        </CharString>
        <CharString name="Itildebelow.1">
          -236 151 -371 rmoveto
          56 11 19 69 57 hhcurveto
          94 13 -175 145 hhcurveto
          118 80 118 122 8 hvcurveto
          -112 hlineto
          -52 -9 -27 -75 -54 hhcurveto
          -82 -23 175 -151 hhcurveto
          -106 -79 -86 -152 -15 hvcurveto
          941 1612 rmoveto
          21 124 rlineto
          -282 hlineto
          -148 hlineto
          -282 hlineto
          -21 -124 rlineto
          281 hlineto
          -196 -1112 rlineto
          -282 hlineto
          -23 -129 rlineto
          282 hlineto
          148 hlineto
          282 hlineto
          23 129 rlineto
          -282 hlineto
          196 1112 rlineto
          endchar
        </CharString>
        <CharString name="J">
          -148 990 -67 callsubr
          endchar
        </CharString>
        <CharString name="Jcircumflex">
          -148 990 -67 callsubr
          -206 1160 -60 callsubr
        </CharString>
        <CharString name="Jecyrillic">
          -138 1000 -67 callsubr
          endchar
        </CharString>
        <CharString name="K">
          107 536 -65 callgsubr
          endchar
        </CharString>
        <CharString name="Kacute">
          107 536 -65 callgsubr
          337 832 -74 callgsubr
        </CharString>
        <CharString name="Kacyrillic">
          83 1356 1365 rmoveto
          -191 hlineto
          -646 -592 rlineto
          -81 hlineto
          104 592 rlineto
          -148 hlineto
          -241 -1365 rlineto
          148 hlineto
          113 640 rlineto
          80 hlineto
          464 -640 rlineto
          178 hlineto
          -505 700 rlineto
          endchar
        </CharString>
        <CharString name="Kappagreek">
          104 536 -65 callgsubr
          endchar
        </CharString>
        <CharString name="Kcaron">
          107 536 -65 callgsubr
          794 1051 -85 callgsubr
          endchar
        </CharString>
        <CharString name="Kcommaaccent">
          107 536 -65 callgsubr
          104 -1127 -30 callsubr
        </CharString>
        <CharString name="Kdotbelow">
          107 536 -65 callgsubr
          28 -910 -96 callsubr
        </CharString>
        <CharString name="Kjecyrillic">
          86 1222 1830 rmoveto
          -158 hlineto
          -296 -319 rlineto
          123 hlineto
          469 -146 rmoveto
          -191 hlineto
          -646 -592 rlineto
          -81 hlineto
          104 592 rlineto
          -148 hlineto
          -241 -1365 rlineto
          148 hlineto
          113 640 rlineto
          80 hlineto
          464 -640 rlineto
          178 hlineto
          -505 700 rlineto
          endchar
        </CharString>
        <CharString name="Klinebelow">
          107 536 -65 callgsubr
          394 -1000 -71 callgsubr
        </CharString>
        <CharString name="L">
          -104 -35 callgsubr
          endchar
        </CharString>
        <CharString name="Lacute">
          -104 -35 callgsubr
          -531 1511 -74 callgsubr
        </CharString>
        <CharString name="Lambdagreek">
          50 2 hmoveto
          161 hlineto
          592 1172 rlineto
          11 hlineto
          177 -1172 rlineto
          152 hlineto
          -227 1365 100 callgsubr
          endchar
        </CharString>
        <CharString name="Lcaron">
          -104 811 1420 132 callsubr
          -6 -1288 rmoveto
          -639 hlineto
          217 1233 rlineto
          -148 -98 callgsubr
          788 hlineto
          endchar
        </CharString>
        <CharString name="Lcircumflexbelow">
          -104 -35 callgsubr
          -845 -393 -63 callsubr
          endchar
        </CharString>
        <CharString name="Lcommaaccent">
          -104 -35 callgsubr
          -502 -448 -30 callsubr
        </CharString>
        <CharString name="Ldotbelow">
          -104 -35 callgsubr
          -578 45 callgsubr
          endchar
        </CharString>
        <CharString name="Ldotbelowmacron">
          -104 -35 callgsubr
          -578 45 callgsubr
          447 1843 -40 callgsubr
        </CharString>
        <CharString name="Ljecyrillic">
          833 562 915 rmoveto
          65 317 rlineto
          523 88 callsubr
          424 hlineto
          328 183 134 270 35 hvcurveto
          3 111 callgsubr
          218 -154 146 -240 vhcurveto
          -283 hlineto
          91 516 rlineto
          -813 hlineto
          -87 -439 rlineto
          -628 -124 -69 -169 -151 hhcurveto
          -19 -21 3 5 -10 hvcurveto
          -24 -137 rlineto
          -4 12 23 -5 21 hhcurveto
          261 88 177 747 153 hvcurveto
          927 -198 rmoveto
          175 95 -91 -154 -19 -2 -31 -3 -20 hvcurveto
          -176 -20 -135 -94 -222 145 callgsubr
          103 585 rlineto
          endchar
        </CharString>
        <CharString name="Llinebelow">
          -104 -35 callgsubr
          -212 -321 -71 callgsubr
        </CharString>
        <CharString name="Lslash">
          -95 939 hmoveto
          23 132 rlineto
          -640 hlineto
          89 503 437 230 26 150 -437 -233 103 583 rlineto
          -148 hlineto
          -118 -670 -147 -78 -26 -146 148 78 -98 -549 rlineto
          endchar
        </CharString>
        <CharString name="M">
          482 287 34 callgsubr
        </CharString>
        <CharString name="Macute">
          482 287 -68 callsubr
          796 1511 -74 callgsubr
        </CharString>
        <CharString name="Mdotaccent">
          482 287 -68 callsubr
          794 1580 -78 callgsubr
        </CharString>
        <CharString name="Mdotbelow">
          482 287 -68 callsubr
          478 45 callgsubr
          endchar
        </CharString>
        <CharString name="Mugreek">
          482 287 34 callgsubr
        </CharString>
        <CharString name="N">
          273 -88 callsubr
          endchar
        </CharString>
        <CharString name="Nacute">
          273 -88 callsubr
          -171 1511 -74 callgsubr
        </CharString>
        <CharString name="Ncaron">
          273 -88 callsubr
          286 1730 -85 callgsubr
          endchar
        </CharString>
        <CharString name="Ncircumflexbelow">
          273 -88 callsubr
          -759 -393 -63 callsubr
          endchar
        </CharString>
        <CharString name="Ncommaaccent">
          273 -88 callsubr
          -416 -448 -30 callsubr
        </CharString>
        <CharString name="Ndotaccent">
          273 -88 callsubr
          -173 1580 -78 callgsubr
        </CharString>
        <CharString name="Ndotbelow">
          273 -88 callsubr
          -492 45 callgsubr
          endchar
        </CharString>
        <CharString name="Ngrave">
          273 -88 callsubr
          -34 1511 rmoveto
          -64 callsubr
          endchar
        </CharString>
        <CharString name="Njecyrillic">
          900 1001 hmoveto
          424 hlineto
          329 182 131 262 34 hvcurveto
          3 27 3 33 21 vvcurveto
          205 -156 133 -238 vhcurveto
          -291 hlineto
          98 553 rlineto
          -148 hlineto
          -98 -553 rlineto
          -695 hlineto
          97 553 126 callgsubr
          120 681 rlineto
          695 hlineto
          52 -549 rmoveto
          96 548 rlineto
          289 hlineto
          171 99 -80 -139 -19 -3 -31 -3 -20 hvcurveto
          -167 -18 -133 -92 -225 hhcurveto
          endchar
        </CharString>
        <CharString name="Nlinebelow">
          273 -88 callsubr
          -126 -321 -71 callgsubr
        </CharString>
        <CharString name="Ntilde">
          273 -88 callsubr
          35 1466 -85 callsubr
          endchar
        </CharString>
        <CharString name="Nugreek">
          270 -88 callsubr
          endchar
        </CharString>
        <CharString name="NumberSignCyrillic">
          862 291 hmoveto
          236 1112 rlineto
          7 hlineto
          466 -1112 71 callsubr
          290 1364 rlineto
          -147 hlineto
          -236 -1112 rlineto
          -8 hlineto
          -465 1112 rlineto
          -147 hlineto
          -290 -1364 rlineto
          1804 570 rmoveto
          24 116 rlineto
          -507 hlineto
          -24 -116 rlineto
          512 552 rmoveto
          -125 -69 -87 -100 -89 -51 59 102 127 68 85 100 88 53 -60 -101 vhcurveto
          129 3 rmoveto
          163 -102 103 -161 -178 -126 -134 -189 -163 102 -102 162 177 126 134 188 vhcurveto
          endchar
        </CharString>
        <CharString name="O">
          234 389 864 -107 callsubr
          endchar
        </CharString>
        <CharString name="OE">
          880 200 673 rmoveto
          -11 -66 -3 -73 -43 vvcurveto
          -349 214 -171 287 147 149 45 124 90 vhcurveto
          1 hlineto
          -25 -140 rlineto
          794 hlineto
          23 132 rlineto
          -648 hlineto
          88 499 rlineto
          613 129 callsubr
          -613 hlineto
          83 471 rlineto
          649 hlineto
          23 132 rlineto
          -796 hlineto
          -40 -239 rlineto
          -1 hlineto
          170 -66 -168 98 -209 hhcurveto
          -287 -220 -183 -322 -58 hvcurveto
          150 -25 rmoveto
          257 49 152 134 210 hhcurveto
          242 143 -174 -228 -22 -2 -50 -7 -43 hvcurveto
          -37 -225 rlineto
          -257 -42 -142 -147 -236 hhcurveto
          -231 -151 140 254 46 5 60 9 49 hvcurveto
          endchar
        </CharString>
        <CharString name="Oacute">
          234 389 864 -107 callsubr
          582 622 -74 callgsubr
        </CharString>
        <CharString name="Obreve">
          234 389 864 -107 callsubr
          385 847 -73 callsubr
          endchar
        </CharString>
        <CharString name="Ocaron">
          234 389 864 -107 callsubr
          1039 841 -85 callgsubr
          endchar
        </CharString>
        <CharString name="Ocircumflex">
          -89 callgsubr
          endchar
        </CharString>
        <CharString name="Ocircumflexacute">
          -89 callgsubr
          243 -17 rmoveto
          120 hlineto
          265 230 rlineto
          -168 hlineto
          endchar
        </CharString>
        <CharString name="Ocircumflexdotbelow">
          -89 callgsubr
          -365 -1961 -96 callsubr
        </CharString>
        <CharString name="Ocircumflexgrave">
          -89 callgsubr
          462 -21 rmoveto
          -178 234 rlineto
          -163 hlineto
          225 -234 rlineto
          endchar
        </CharString>
        <CharString name="Ocircumflexhookabove">
          -89 callgsubr
          210 127 rmoveto
          3 10 18 3 22 hhcurveto
          66 31 -20 -40 -30 -31 -34 -39 -9 hvcurveto
          46 -65 rlineto
          79 24 53 64 70 vvcurveto
          78 -61 43 -121 -16 -22 -3 -4 -19 vhcurveto
          endchar
        </CharString>
        <CharString name="Ocircumflextilde">
          234 389 864 -107 callsubr
          329 612 -15 callsubr
        </CharString>
        <CharString name="Ocyrillic">
          254 399 864 -107 callsubr
          endchar
        </CharString>
        <CharString name="Odblgrave">
          234 389 864 -107 callsubr
          574 622 rmoveto
          -64 callsubr
          385 hmoveto
          -64 callsubr
          endchar
        </CharString>
        <CharString name="Odieresis">
          234 389 864 -107 callsubr
          414 687 -101 callgsubr
          endchar
        </CharString>
        <CharString name="Odieresismacron">
          234 389 864 -107 callsubr
          1022 994 -22 callgsubr
        </CharString>
        <CharString name="Odotaccent">
          234 389 864 -107 callsubr
          580 691 -78 callgsubr
        </CharString>
        <CharString name="Odotaccentmacron">
          234 389 864 -107 callsubr
          580 688 31 callsubr
        </CharString>
        <CharString name="Odotbelow">
          234 389 864 -107 callsubr
          262 -1120 -96 callsubr
        </CharString>
        <CharString name="Ograve">
          234 389 864 -107 callsubr
          719 622 rmoveto
          -64 callsubr
          endchar
        </CharString>
        <CharString name="Ohookabove">
          234 389 864 -107 callsubr
          556 832 -62 callgsubr
          endchar
        </CharString>
        <CharString name="Ohorn">
          -95 callgsubr
          endchar
        </CharString>
        <CharString name="Ohornacute">
          -95 callgsubr
          -459 1031 -74 callgsubr
        </CharString>
        <CharString name="Ohorndotbelow">
          -95 callgsubr
          -779 -711 -96 callsubr
        </CharString>
        <CharString name="Ohorngrave">
          -95 callgsubr
          -322 1031 rmoveto
          -64 callsubr
          endchar
        </CharString>
        <CharString name="Ohornhookabove">
          -95 callgsubr
          -485 1241 -62 callgsubr
          endchar
        </CharString>
        <CharString name="Ohorntilde">
          -95 callgsubr
          -253 986 -85 callsubr
          endchar
        </CharString>
        <CharString name="Ohungarumlaut">
          234 389 864 -107 callsubr
          425 622 22 callgsubr
        </CharString>
        <CharString name="Oinvertedbreve">
          234 389 864 -107 callsubr
          978 598 -54 callsubr
          endchar
        </CharString>
        <CharString name="Omacron">
          234 389 864 -107 callsubr
          982 723 -40 callgsubr
        </CharString>
        <CharString name="Omacronacute">
          234 389 864 -107 callsubr
          595 839 47 callsubr
        </CharString>
        <CharString name="Omacrongrave">
          234 389 864 -107 callsubr
          983 723 43 callgsubr
        </CharString>
        <CharString name="Omegagreek">
          246 752 -17 callsubr
          endchar
        </CharString>
        <CharString name="Omegatonosgreek">
          446 952 -17 callsubr
          -791 878 -27 callgsubr
        </CharString>
        <CharString name="Omicrongreek">
          234 389 864 -107 callsubr
          endchar
        </CharString>
        <CharString name="Omicrontonosgreek">
          434 590 864 -107 callsubr
          -259 125 -27 callgsubr
        </CharString>
        <CharString name="Oogonek">
          -24 callgsubr
          endchar
        </CharString>
        <CharString name="Oogonekmacron">
          -24 callgsubr
          870 954 -40 callgsubr
        </CharString>
        <CharString name="Oslash">
          -30 callgsubr
          endchar
        </CharString>
        <CharString name="Oslashacute">
          -30 callgsubr
          -306 420 -74 callgsubr
        </CharString>
        <CharString name="Otilde">
          234 389 864 -107 callsubr
          788 577 -85 callsubr
          endchar
        </CharString>
        <CharString name="Otildeacute">
          234 389 864 -107 callsubr
          628 841 rmoveto
          141 hlineto
          288 200 144 callgsubr
          -94 -464 -27 callsubr
        </CharString>
        <CharString name="Otildedieresis">
          234 389 864 -107 callsubr
          788 577 -85 callsubr
          -331 361 -101 callgsubr
          endchar
        </CharString>
        <CharString name="Otildemacron">
          234 389 864 -107 callsubr
          1022 994 26 callgsubr
          -213 -320 -27 callsubr
        </CharString>
        <CharString name="P">
          37 294 hmoveto
          -78 callsubr
          endchar
        </CharString>
        <CharString name="Pacute">
          37 294 hmoveto
          -78 callsubr
          203 278 -74 callgsubr
        </CharString>
        <CharString name="Pdotaccent">
          37 294 hmoveto
          -78 callsubr
          201 347 -78 callgsubr
        </CharString>
        <CharString name="Pecyrillic">
          263 1150 hmoveto
          74 callsubr
        </CharString>
        <CharString name="Phigreek">
          490 1580 749 rmoveto
          296 -205 194 -303 40 vhcurveto
          22 126 rlineto
          -155 hlineto
          -22 -118 rlineto
          -379 -250 -173 -311 -73 hvcurveto
          -16 -70 -7 -63 -69 vvcurveto
          -306 202 -195 306 -43 vhcurveto
          -22 -122 rlineto
          156 hlineto
          21 113 rlineto
          407 248 207 338 57 hvcurveto
          9 54 4 52 50 vvcurveto
          -682 411 rmoveto
          -171 -975 rlineto
          -248 41 -139 138 238 vvcurveto
          56 5 49 12 58 vhcurveto
          255 56 195 140 290 hhcurveto
          -23 -982 rmoveto
          173 975 rlineto
          252 -43 134 -129 -244 vvcurveto
          -38 -3 -39 -7 -41 vhcurveto
          -44 -273 -196 -167 -309 -1 rrcurveto
          endchar
        </CharString>
        <CharString name="Pigreek">
          241 295 hmoveto
          218 1234 rlineto
          695 hlineto
          -218 -1234 rlineto
          149 -20 callgsubr
          -993 -98 callgsubr
          endchar
        </CharString>
        <CharString name="Psigreek">
          328 612 97 callgsubr
          57 319 rlineto
          0 vlineto
          337 9 180 167 55 310 99 560 rcurveline
          -147 hlineto
          -94 -529 rlineto
          -266 -47 -112 -114 -247 hhcurveto
          160 909 rlineto
          -147 hlineto
          -160 -904 rlineto
          -187 15 -96 75 189 vvcurveto
          35 7 47 8 41 vhcurveto
          89 502 rlineto
          -148 hlineto
          -87 -488 rlineto
          -9 -53 -6 -49 -47 vvcurveto
          -260 141 -115 263 -32 vhcurveto
          endchar
        </CharString>
        <CharString name="Q">
          248 200 673 rmoveto
          -11 -66 -3 -69 -61 vvcurveto
          -324 227 -182 288 74 67 10 19 61 vhcurveto
          94 -160 rlineto
          162 hlineto
          -127 218 130 86 82 142 35 192 rlinecurve
          40 219 39 callgsubr
          64 41 vvcurveto
          336 -221 194 -312 -283 -222 -183 -322 -58 vhcurveto
          608 -510 rmoveto
          -170 hlineto
          152 -255 rlineto
          -10 -34 -34 -5 -39 hhcurveto
          -240 -147 148 238 64 7 50 9 49 hvcurveto
          38 206 rlineto
          273 51 155 119 203 hhcurveto
          234 150 -155 -231 56 callgsubr
          -45 hvcurveto
          -41 -226 -27 -153 -58 -109 -87 -67 rlinecurve
          endchar
        </CharString>
        <CharString name="R">
          -96 callgsubr
          endchar
        </CharString>
        <CharString name="Racute">
          -96 callgsubr
          202 278 -74 callgsubr
        </CharString>
        <CharString name="Rcaron">
          -96 callgsubr
          659 497 -85 callgsubr
          endchar
        </CharString>
        <CharString name="Rcommaaccent">
          -96 callgsubr
          -40 -1681 -30 callsubr
        </CharString>
        <CharString name="Rdblgrave">
          -96 callgsubr
          194 278 rmoveto
          -64 callsubr
          385 hmoveto
          -64 callsubr
          endchar
        </CharString>
        <CharString name="Rdotaccent">
          -96 callgsubr
          200 347 -78 callgsubr
        </CharString>
        <CharString name="Rdotbelow">
          -96 callgsubr
          -116 -1464 -96 callsubr
        </CharString>
        <CharString name="Rdotbelowmacron">
          -96 callgsubr
          -116 -1464 -99 callsubr
          718 1843 -40 callgsubr
        </CharString>
        <CharString name="Rhogreek">
          36 294 hmoveto
          -78 callsubr
          endchar
        </CharString>
        <CharString name="Rinvertedbreve">
          -96 callgsubr
          598 254 -54 callsubr
          endchar
        </CharString>
        <CharString name="Rlinebelow">
          -96 callgsubr
          250 -1554 -71 callgsubr
        </CharString>
        <CharString name="S">
          58 136 378 rmoveto
          -103 callgsubr
          endchar
        </CharString>
        <CharString name="Sacute">
          58 136 378 rmoveto
          -103 callgsubr
          434 1133 -74 callgsubr
        </CharString>
        <CharString name="Sacutedotaccent">
          58 136 378 rmoveto
          -103 callgsubr
          538 1123 74 callgsubr
        </CharString>
        <CharString name="Scaron">
          58 136 378 rmoveto
          -103 callgsubr
          891 1352 -85 callgsubr
          endchar
        </CharString>
        <CharString name="Scarondotaccent">
          58 136 378 rmoveto
          -103 callgsubr
          889 1352 50 callgsubr
        </CharString>
        <CharString name="Scedilla">
          58 558 -484 rmoveto
          128 104 42 callgsubr
          36 113 rlineto
          1 1 0 1 hhcurveto
          267 9 187 147 247 vvcurveto
          221 -158 75 -178 70 vhcurveto
          -81 32 rlineto
          -146 58 -112 65 130 vvcurveto
          162 155 73 146 163 130 -94 -138 vhcurveto
          -12 -1 -5 -1 vvcurveto
          141 hlineto
          1 2 30 4 vvcurveto
          220 -206 127 -227 -255 -202 -137 -237 -215 179 -104 175 -65 vhcurveto
          64 -24 rlineto
          139 -52 117 -55 -143 vvcurveto
          -155 -128 -103 -192 -212 -125 123 125 8 1 11 1 8 vhcurveto
          -147 hlineto
          -2 -13 -1 -18 -15 vvcurveto
          -164 147 -161 244 -31 vhcurveto
          -42 -125 109 callgsubr
          -40 -53 9 12 -39 vhcurveto
          -15 -94 rlineto
          -11 30 149 callsubr
          endchar
        </CharString>
        <CharString name="Scircumflex">
          58 136 378 rmoveto
          -103 callgsubr
          181 1123 -60 callsubr
        </CharString>
        <CharString name="Scommaaccent">
          58 136 378 rmoveto
          -103 callgsubr
          191 -826 -30 callsubr
        </CharString>
        <CharString name="Sdotaccent">
          58 136 378 rmoveto
          -103 callgsubr
          432 1202 -78 callgsubr
        </CharString>
        <CharString name="Sdotbelow">
          58 136 378 rmoveto
          -103 callgsubr
          115 -609 -96 callsubr
        </CharString>
        <CharString name="Sdotbelowdotaccent">
          58 136 378 rmoveto
          -103 callgsubr
          115 -609 -99 callsubr
          317 1811 -78 callgsubr
        </CharString>
        <CharString name="Shacyrillic">
          767 156 hmoveto
          1498 hlineto
          241 128 callgsubr
          -527 hlineto
          218 1232 rlineto
          -148 hlineto
          -218 131 callgsubr
          -526 hlineto
          217 1232 rlineto
          -148 hlineto
          endchar
        </CharString>
        <CharString name="Shchacyrillic">
          814 1785 -286 rmoveto
          74 419 rlineto
          -180 hlineto
          217 1232 rlineto
          -148 88 callsubr
          -527 hlineto
          217 1232 rlineto
          -149 hlineto
          -216 131 callgsubr
          -528 hlineto
          217 1232 rlineto
          -148 -98 callgsubr
          1546 143 callsubr
          endchar
        </CharString>
        <CharString name="Sigmagreek">
          23 1024 hmoveto
          23 132 rlineto
          -728 hlineto
          2 10 466 527 6 35 -271 519 2 10 rlineto
          691 hlineto
          24 132 rlineto
          -892 hlineto
          -17 -96 302 -579 -519 -585 -18 -105 rlineto
          endchar
        </CharString>
        <CharString name="Softsigncyrillic">
          56 712 717 rmoveto
          198 72 -113 -132 -18 -2 -31 -3 -21 hvcurveto
          -146 -17 -100 -124 -260 145 callgsubr
          103 585 rlineto
          -274 -717 rmoveto
          424 hlineto
          334 177 138 266 34 hvcurveto
          4 111 callgsubr
          203 -137 161 -257 vhcurveto
          -283 hlineto
          91 516 rlineto
          -148 hlineto
          endchar
        </CharString>
        <CharString name="T">
          -26 583 hmoveto
          -47 callsubr
          endchar
        </CharString>
        <CharString name="Taugreek">
          -31 583 hmoveto
          -47 callsubr
          endchar
        </CharString>
        <CharString name="Tbar">
          -26 932 660 rmoveto
          21 117 rlineto
          -234 hlineto
          82 456 rlineto
          431 hlineto
          21 132 rlineto
          -1009 hlineto
          -23 -132 rlineto
          432 hlineto
          -82 -456 rlineto
          -241 96 callsubr
          241 hlineto
          -117 -660 125 callsubr
          117 660 rlineto
          endchar
        </CharString>
        <CharString name="Tcaron">
          -26 583 hmoveto
          -47 callsubr
          713 1730 -85 callgsubr
          endchar
        </CharString>
        <CharString name="Tcedilla">
          -28 470 hmoveto
          -51 -149 81 callgsubr
          70 hhcurveto
          128 48 callsubr
          -108 3 vhcurveto
          45 141 rlineto
          0 vlineto
          219 1233 rlineto
          431 hlineto
          21 132 rlineto
          -1009 hlineto
          -23 -132 rlineto
          432 hlineto
          -219 -1233 rlineto
          endchar
        </CharString>
        <CharString name="Tcircumflexbelow">
          -26 583 hmoveto
          -47 callsubr
          -331 -393 -63 callsubr
          endchar
        </CharString>
        <CharString name="Tcommaaccent">
          -26 583 hmoveto
          -47 callsubr
          12 -448 -30 callsubr
        </CharString>
        <CharString name="Tdotaccent">
          -26 583 hmoveto
          -47 callsubr
          254 1580 -78 callgsubr
        </CharString>
        <CharString name="Tdotbelow">
          -26 583 hmoveto
          -47 callsubr
          -64 45 callgsubr
          endchar
        </CharString>
        <CharString name="Tecyrillic">
          -24 584 hmoveto
          -47 callsubr
          endchar
        </CharString>
        <CharString name="Thetagreek">
          234 701 -29 rmoveto
          329 190 117 callsubr
          40 217 39 callgsubr
          70 callgsubr
          288 vhcurveto
          21 138 rmoveto
          -241 -145 153 238 64 6 45 9 49 hvcurveto
          38 206 rlineto
          273 51 155 119 203 96 callgsubr
          -232 56 callgsubr
          -45 hvcurveto
          -39 -219 rlineto
          -266 -47 -144 -142 -222 hhcurveto
          290 512 rmoveto
          23 133 rlineto
          -525 hlineto
          -23 -133 rlineto
          endchar
        </CharString>
        <CharString name="Thorn">
          39 386 21 callgsubr
          146 hlineto
          57 324 rlineto
          265 hlineto
          336 168 122 250 33 hvcurveto
          3 27 2 21 24 vvcurveto
          186 -130 138 -253 vhcurveto
          -288 hlineto
          47 273 rlineto
          216 -404 rmoveto
          195 67 -86 -115 -22 -2 -22 -4 -20 hvcurveto
          -145 -22 -89 -96 -257 hhcurveto
          -264 hlineto
          92 506 rlineto
          endchar
        </CharString>
        <CharString name="Tlinebelow">
          -26 583 hmoveto
          -47 callsubr
          302 -321 -71 callgsubr
        </CharString>
        <CharString name="Tsecyrillic">
          320 1290 -286 rmoveto
          74 419 rlineto
          -180 hlineto
          217 64 callgsubr
        </CharString>
        <CharString name="Tshecyrillic">
          423 717 713 rmoveto
          -7 hlineto
          92 519 rlineto
          431 hlineto
          140 callgsubr
          -1011 80 callsubr
          434 88 callsubr
          146 hlineto
          101 571 rlineto
          71 83 129 50 123 hhcurveto
          192 81 -115 -213 -36 hvcurveto
          -65 -364 -21 callgsubr
          63 354 rlineto
          301 53 -127 165 -283 hhcurveto
          -124 -120 -43 -64 -84 hvcurveto
          endchar
        </CharString>
        <CharString name="U">
          -104 callsubr
          endchar
        </CharString>
        <CharString name="Uacute">
          -104 callsubr
          453 977 -74 callgsubr
        </CharString>
        <CharString name="Ubreve">
          -104 callsubr
          256 1202 -73 callsubr
          endchar
        </CharString>
        <CharString name="Ucaron">
          -104 callsubr
          910 1196 -85 callgsubr
          endchar
        </CharString>
        <CharString name="Ucircumflex">
          -104 callsubr
          200 967 -60 callsubr
        </CharString>
        <CharString name="Ucircumflexbelow">
          -104 callsubr
          -140 -927 -63 callsubr
          endchar
        </CharString>
        <CharString name="Ucyrillic">
          -23 1120 1365 rmoveto
          -477 -858 rlineto
          -7 hlineto
          -261 858 rlineto
          -158 hlineto
          327 -1023 rlineto
          -133 -82 -73 -77 -117 hhcurveto
          -31 -33 5 4 -15 hvcurveto
          -20 -141 rlineto
          -4 13 33 -5 40 hhcurveto
          205 103 113 238 135 hvcurveto
          581 1023 rlineto
          endchar
        </CharString>
        <CharString name="Udblgrave">
          -104 callsubr
          445 977 rmoveto
          -64 callsubr
          385 hmoveto
          -64 callsubr
          endchar
        </CharString>
        <CharString name="Udieresis">
          -104 callsubr
          285 1042 -101 callgsubr
          endchar
        </CharString>
        <CharString name="Udieresisacute">
          -104 callsubr
          474 1208 -23 callsubr
          endchar
        </CharString>
        <CharString name="Udieresisbelow">
          -104 callsubr
          57 -849 -101 callsubr
        </CharString>
        <CharString name="Udieresiscaron">
          -104 callsubr
          949 1406 27 callsubr
        </CharString>
        <CharString name="Udieresisgrave">
          -104 callsubr
          257 1409 rmoveto
          249 -201 rlineto
          141 hlineto
          -215 201 rlineto
          -147 -367 -101 callgsubr
          endchar
        </CharString>
        <CharString name="Udieresismacron">
          -104 callsubr
          893 1349 -22 callgsubr
        </CharString>
        <CharString name="Udotbelow">
          -104 callsubr
          127 -765 -96 callsubr
        </CharString>
        <CharString name="Ugrave">
          -104 callsubr
          590 977 rmoveto
          -64 callsubr
          endchar
        </CharString>
        <CharString name="Uhookabove">
          -104 callsubr
          427 1187 -62 callgsubr
          endchar
        </CharString>
        <CharString name="Uhorn">
          -86 callsubr
          endchar
        </CharString>
        <CharString name="Uhornacute">
          -86 callsubr
          133 1540 -74 callgsubr
        </CharString>
        <CharString name="Uhorndotbelow">
          -86 callsubr
          -193 -202 -96 callsubr
        </CharString>
        <CharString name="Uhorngrave">
          -86 callsubr
          270 1540 rmoveto
          -64 callsubr
          endchar
        </CharString>
        <CharString name="Uhornhookabove">
          -86 callsubr
          107 1750 -62 callgsubr
          endchar
        </CharString>
        <CharString name="Uhorntilde">
          -86 callsubr
          339 1495 -85 callsubr
          endchar
        </CharString>
        <CharString name="Uhungarumlaut">
          -104 callsubr
          296 977 22 callgsubr
        </CharString>
        <CharString name="Uinvertedbreve">
          -104 callsubr
          849 953 -54 callsubr
          endchar
        </CharString>
        <CharString name="Umacron">
          -104 callsubr
          853 1078 -40 callgsubr
        </CharString>
        <CharString name="Umacrondieresis">
          -104 callsubr
          845 1078 45 callsubr
        </CharString>
        <CharString name="Uogonek">
          226 1018 70 rmoveto
          95 79 70 115 30 163 165 938 rcurveline
          -151 -14 callsubr
          147 831 rlineto
          -152 hlineto
          -143 -815 rlineto
          -6 -34 -7 -52 -53 vvcurveto
          -278 202 -162 236 59 79 18 27 43 vhcurveto
          4 -7 -92 -62 -41 -77 -11 -65 rlinecurve
          -135 -23 101 -56 105 hhcurveto
          51 44 13 6 15 hvcurveto
          19 108 rlineto
          -9 -28 -30 -2 -20 hhcurveto
          -67 -47 30 74 13 hvcurveto
          16 93 95 65 85 78 rrcurveto
          endchar
        </CharString>
        <CharString name="Upsilondieresisgreek">
          -26 692 594 -82 callgsubr
          -61 1576 -101 callgsubr
          endchar
        </CharString>
        <CharString name="Upsilongreek">
          -27 692 594 -82 callgsubr
          endchar
        </CharString>
        <CharString name="Upsilontonosgreek">
          389 1107 594 -82 callgsubr
          -822 1014 -27 callgsubr
        </CharString>
        <CharString name="Uring">
          -104 callsubr
          564 1029 25 callsubr
        </CharString>
        <CharString name="Ushortcyrillic">
          -23 1003 1741 rmoveto
          -97 -17 -79 -68 -136 hhcurveto
          -136 -56 68 97 17 hvcurveto
          -109 hlineto
          -135 -24 89 -119 206 hhcurveto
          221 109 114 140 24 hvcurveto
          8 -376 rmoveto
          -477 -858 rlineto
          -7 hlineto
          -261 858 rlineto
          -158 hlineto
          327 -1023 rlineto
          -133 -82 -73 -77 -117 hhcurveto
          -31 -33 5 4 -15 hvcurveto
          -20 -141 rlineto
          -4 13 33 -5 40 hhcurveto
          205 103 113 238 135 hvcurveto
          581 1023 rlineto
          endchar
        </CharString>
        <CharString name="Utilde">
          -104 callsubr
          659 932 -85 callsubr
          endchar
        </CharString>
        <CharString name="Utildeacute">
          -104 callsubr
          499 1196 rmoveto
          141 hlineto
          288 200 144 callgsubr
          -94 -464 -27 callsubr
        </CharString>
        <CharString name="Utildebelow">
          -104 callsubr
          329 -955 -61 callsubr
          endchar
        </CharString>
        <CharString name="V">
          28 callsubr
          endchar
        </CharString>
        <CharString name="Vdotbelow">
          28 callsubr
          -58 45 callgsubr
          endchar
        </CharString>
        <CharString name="Vecyrillic">
          143 157 -80 callsubr
          endchar
        </CharString>
        <CharString name="Vtilde">
          28 callsubr
          464 1466 -85 callsubr
          endchar
        </CharString>
        <CharString name="W">
          619 509 -76 callsubr
          endchar
        </CharString>
        <CharString name="Wacute">
          619 509 -76 callsubr
          656 1511 -74 callgsubr
        </CharString>
        <CharString name="Wcircumflex">
          619 509 -76 callsubr
          403 13 callgsubr
        </CharString>
        <CharString name="Wdieresis">
          619 509 -76 callsubr
          488 1576 -101 callgsubr
          endchar
        </CharString>
        <CharString name="Wdotaccent">
          619 509 -76 callsubr
          654 1580 -78 callgsubr
        </CharString>
        <CharString name="Wdotbelow">
          619 509 -76 callsubr
          342 45 callgsubr
          endchar
        </CharString>
        <CharString name="Wgrave">
          619 509 -76 callsubr
          793 1511 rmoveto
          -64 callsubr
          endchar
        </CharString>
        <CharString name="X">
          66 1165 1365 -58 callsubr
          endchar
        </CharString>
        <CharString name="Xacyrillic">
          86 1175 1365 -58 callsubr
          endchar
        </CharString>
        <CharString name="Xdieresis">
          66 1165 1365 -58 callsubr
          -783 211 -101 callgsubr
          endchar
        </CharString>
        <CharString name="Xdotaccent">
          66 1165 1365 -58 callsubr
          -617 215 -78 callgsubr
        </CharString>
        <CharString name="Xigreek">
          22 297 1228 rmoveto
          903 hlineto
          26 137 rlineto
          -904 hlineto
          -47 -738 rmoveto
          735 hlineto
          25 137 rlineto
          -735 hlineto
          -219 -764 rmoveto
          903 hlineto
          25 137 rlineto
          -904 hlineto
          endchar
        </CharString>
        <CharString name="Y">
          -25 692 594 -82 callgsubr
          endchar
        </CharString>
        <CharString name="Yacute">
          -25 692 594 -82 callgsubr
          107 1511 -74 callgsubr
        </CharString>
        <CharString name="Ycircumflex">
          -25 692 594 -82 callgsubr
          -146 13 callgsubr
        </CharString>
        <CharString name="Ydieresis">
          -25 692 594 -82 callgsubr
          -61 1576 -101 callgsubr
          endchar
        </CharString>
        <CharString name="Ydotaccent">
          -25 692 594 -82 callgsubr
          105 1580 -78 callgsubr
        </CharString>
        <CharString name="Ydotbelow">
          -25 692 594 -82 callgsubr
          -212 45 callgsubr
          endchar
        </CharString>
        <CharString name="Yericyrillic">
          -72 callsubr
          endchar
        </CharString>
        <CharString name="Ygrave">
          -25 692 594 -82 callgsubr
          244 1511 rmoveto
          -64 callsubr
          endchar
        </CharString>
        <CharString name="Yhookabove">
          -25 692 594 -82 callgsubr
          81 1721 -62 callgsubr
          endchar
        </CharString>
        <CharString name="Yicyrillic">
          -583 304 36 callsubr
        </CharString>
        <CharString name="Yicyrillic.1">
          -217 862 1481 rmoveto
          54 43 43 53 52 -43 43 -54 -55 -42 -43 -52 -53 42 -43 55 hvcurveto
          -331 0 rmoveto
          54 42 43 53 52 -42 43 -54 -55 -42 -43 -52 -53 42 -43 55 hvcurveto
          458 -240 rmoveto
          21 124 rlineto
          -282 hlineto
          -148 hlineto
          -282 hlineto
          -21 -124 rlineto
          281 hlineto
          -196 -1112 rlineto
          -282 hlineto
          -23 -129 rlineto
          282 hlineto
          148 hlineto
          282 hlineto
          23 129 rlineto
          -282 hlineto
          196 1112 rlineto
          endchar
        </CharString>
        <CharString name="Ymacron">
          -25 692 594 -82 callgsubr
          507 1612 -40 callgsubr
        </CharString>
        <CharString name="Ytilde">
          -25 692 594 -82 callgsubr
          313 1466 -85 callsubr
          endchar
        </CharString>
        <CharString name="Z">
          52 98 hmoveto
          -60 callgsubr
          endchar
        </CharString>
        <CharString name="Zacute">
          52 98 hmoveto
          -60 callgsubr
          631 1396 -74 callgsubr
        </CharString>
        <CharString name="Zcaron">
          52 98 hmoveto
          -60 callgsubr
          1088 1615 -85 callgsubr
          endchar
        </CharString>
        <CharString name="Zcircumflex">
          52 98 hmoveto
          -60 callgsubr
          378 1386 -60 callsubr
        </CharString>
        <CharString name="Zdotaccent">
          52 98 hmoveto
          -60 callgsubr
          629 1465 -78 callgsubr
        </CharString>
        <CharString name="Zdotbelow">
          52 98 hmoveto
          -60 callgsubr
          312 -346 -96 callsubr
        </CharString>
        <CharString name="Zecyrillic">
          6 457 645 -83 callsubr
          endchar
        </CharString>
        <CharString name="Zetagreek">
          56 98 hmoveto
          -60 callgsubr
          endchar
        </CharString>
        <CharString name="Zhecyrillic">
          665 1942 1365 rmoveto
          -190 hlineto
          -608 -592 rlineto
          -80 hlineto
          104 592 rlineto
          -146 hlineto
          -104 -592 rlineto
          -80 hlineto
          -409 592 rlineto
          -176 hlineto
          446 -637 -708 -728 rlineto
          200 hlineto
          624 640 rlineto
          79 hlineto
          -113 -640 rlineto
          146 hlineto
          113 640 rlineto
          79 hlineto
          421 -640 rlineto
          177 hlineto
          -459 702 rlineto
          endchar
        </CharString>
        <CharString name="Zlinebelow">
          52 98 hmoveto
          -60 callgsubr
          678 -436 -71 callgsubr
        </CharString>
        <CharString name="a">
          -51 -107 callgsubr
          endchar
        </CharString>
        <CharString name="a.1">
          -105 callgsubr
          endchar
        </CharString>
        <CharString name="aacute">
          -51 -107 callgsubr
          293 934 -75 callsubr
        </CharString>
        <CharString name="aacute.1">
          -105 callgsubr
          -16 157 -75 callsubr
        </CharString>
        <CharString name="abreve">
          -51 -107 callgsubr
          162 1193 -76 callgsubr
          endchar
        </CharString>
        <CharString name="abreve.1">
          -105 callgsubr
          -117 416 -76 callgsubr
          endchar
        </CharString>
        <CharString name="abreveacute">
          -51 -107 callgsubr
          147 1143 -5 callgsubr
          211 94 rmoveto
          116 hlineto
          338 350 rlineto
          -156 hlineto
          endchar
        </CharString>
        <CharString name="abreveacute.1">
          -105 callgsubr
          -132 366 -5 callgsubr
          211 94 rmoveto
          116 hlineto
          338 350 rlineto
          -156 hlineto
          endchar
        </CharString>
        <CharString name="abrevedotbelow">
          -51 -107 callgsubr
          162 1193 -76 callgsubr
          -231 -1711 -96 callsubr
        </CharString>
        <CharString name="abrevedotbelow.1">
          -105 callgsubr
          -117 416 -76 callgsubr
          -243 -1711 -96 callsubr
        </CharString>
        <CharString name="abrevegrave">
          -51 -107 callgsubr
          147 1143 -5 callgsubr
          357 94 rmoveto
          -176 350 rlineto
          -144 hlineto
          212 -350 rlineto
          endchar
        </CharString>
        <CharString name="abrevegrave.1">
          -105 callgsubr
          -112 366 -5 callgsubr
          357 94 rmoveto
          -176 350 rlineto
          -144 hlineto
          212 -350 rlineto
          endchar
        </CharString>
        <CharString name="abrevehookabove">
          -51 -107 callgsubr
          147 1143 rmoveto
          -116 98 -97 83 callgsubr
          -72 -63 -102 -22 callsubr
          -14 -19 vvcurveto
          183 341 rmoveto
          -15 -86 rlineto
          9 20 31 4 23 hhcurveto
          70 36 -25 -50 -48 -42 -40 -72 -23 hvcurveto
          38 -77 rlineto
          108 33 68 77 92 vvcurveto
          95 -66 50 -126 -28 -27 -4 -7 -18 vhcurveto
          endchar
        </CharString>
        <CharString name="abrevehookabove.1">
          -105 callgsubr
          -132 366 rmoveto
          -116 98 -97 83 callgsubr
          -72 -63 -102 -22 callsubr
          -14 -19 vvcurveto
          183 341 rmoveto
          -15 -86 rlineto
          9 20 31 4 23 hhcurveto
          70 36 -25 -50 -48 -42 -40 -72 -23 hvcurveto
          38 -77 rlineto
          108 33 68 77 92 vvcurveto
          95 -66 50 -126 -28 -27 -4 -7 -18 vhcurveto
          endchar
        </CharString>
        <CharString name="abrevetilde">
          -51 -107 callgsubr
          147 1143 -5 callgsubr
          454 129 rmoveto
          105 68 100 105 9 hvcurveto
          -96 hlineto
          -68 -9 -29 -44 -46 -79 -7 150 -144 hhcurveto
          -102 -69 -87 -118 -11 hvcurveto
          96 hlineto
          68 8 26 43 50 85 5 -149 146 callsubr
        </CharString>
        <CharString name="abrevetilde.1">
          -105 callgsubr
          -132 366 -5 callgsubr
          454 129 rmoveto
          105 68 100 105 9 hvcurveto
          -96 hlineto
          -68 -9 -29 -44 -46 -79 -7 150 -144 hhcurveto
          -102 -69 -87 -118 -11 hvcurveto
          96 hlineto
          68 8 26 43 50 85 5 -149 146 callsubr
        </CharString>
        <CharString name="acaron">
          -51 -107 callgsubr
          764 1306 -79 callsubr
        </CharString>
        <CharString name="acaron.1">
          -105 callgsubr
          505 529 -79 callsubr
        </CharString>
        <CharString name="acircumflex">
          -51 -107 callgsubr
          113 934 -79 callgsubr
          endchar
        </CharString>
        <CharString name="acircumflex.1">
          -105 callgsubr
          -126 157 -79 callgsubr
          endchar
        </CharString>
        <CharString name="acircumflexacute">
          -19 callsubr
          205 7 callsubr
          122 hlineto
          -187 286 rlineto
          -95 hlineto
          259 -103 rmoveto
          116 hlineto
          347 346 100 callsubr
          endchar
        </CharString>
        <CharString name="acircumflexacute.1">
          -17 callgsubr
          205 7 callsubr
          122 hlineto
          -187 286 rlineto
          -95 hlineto
          259 -103 rmoveto
          116 hlineto
          347 346 100 callsubr
          endchar
        </CharString>
        <CharString name="acircumflexdotbelow">
          -51 -107 callgsubr
          113 934 -79 callgsubr
          -372 -1828 -96 callsubr
        </CharString>
        <CharString name="acircumflexdotbelow.1">
          -105 callgsubr
          -146 157 -79 callgsubr
          -356 -1828 -96 callsubr
        </CharString>
        <CharString name="acircumflexgrave">
          -19 callsubr
          204 7 callsubr
          123 26 callsubr
          461 -103 rmoveto
          -167 346 rlineto
          -139 hlineto
          205 -346 rlineto
          endchar
        </CharString>
        <CharString name="acircumflexgrave.1">
          -17 callgsubr
          204 7 callsubr
          123 26 callsubr
          461 -103 rmoveto
          -167 346 rlineto
          -139 hlineto
          205 -346 rlineto
          endchar
        </CharString>
        <CharString name="acircumflexhookabove">
          -19 callsubr
          205 7 callsubr
          122 hlineto
          -187 286 rlineto
          -95 hlineto
          199 246 rmoveto
          -15 -86 rlineto
          8 21 31 5 23 hhcurveto
          70 36 -25 -51 -47 -42 -41 -73 -23 hvcurveto
          39 -76 rlineto
          108 33 68 77 91 vvcurveto
          95 -67 51 -126 -27 -28 -5 -6 -18 vhcurveto
          endchar
        </CharString>
        <CharString name="acircumflexhookabove.1">
          -17 callgsubr
          205 7 callsubr
          122 hlineto
          -187 286 rlineto
          -95 hlineto
          199 246 rmoveto
          -15 -86 rlineto
          8 21 31 5 23 hhcurveto
          70 36 -25 -51 -47 -42 -41 -73 -23 hvcurveto
          39 -76 rlineto
          108 33 68 77 91 vvcurveto
          95 -67 51 -126 -27 -28 -5 -6 -18 vhcurveto
          endchar
        </CharString>
        <CharString name="acircumflextilde">
          -51 -107 callgsubr
          105 935 -56 callgsubr
        </CharString>
        <CharString name="acircumflextilde.1">
          -105 callgsubr
          -154 158 -56 callgsubr
        </CharString>
        <CharString name="acute">
          -174 410 1221 -75 callsubr
        </CharString>
        <CharString name="acutecmb">
          50 1221 -75 callsubr
        </CharString>
        <CharString name="acutecmb.short">
          131 1512 -74 callgsubr
        </CharString>
        <CharString name="acutedotaccentcmb">
          153 1221 72 callsubr
        </CharString>
        <CharString name="acutedotaccentcmb.short">
          235 1502 74 callgsubr
        </CharString>
        <CharString name="acyrillic">
          -41 -107 callgsubr
          endchar
        </CharString>
        <CharString name="acyrillic.1">
          48 916 638 44 callgsubr
          -283 426 65 callsubr
          -32 -175 rlineto
          145 hlineto
          187 1047 86 callgsubr
          -36 -206 rlineto
          -11 hlineto
          99 -21 -113 124 -182 hhcurveto
          endchar
        </CharString>
        <CharString name="adblgrave">
          -51 -107 callgsubr
          329 934 -44 callgsubr
        </CharString>
        <CharString name="adblgrave.1">
          -105 callgsubr
          69 157 -44 callgsubr
        </CharString>
        <CharString name="adieresis">
          -51 -107 callgsubr
          260 938 -101 callsubr
        </CharString>
        <CharString name="adieresis.1">
          -105 callgsubr
          1 161 -101 callsubr
        </CharString>
        <CharString name="adieresismacron">
          -51 -107 callgsubr
          762 1311 rmoveto
          22 102 rlineto
          -584 hlineto
          -22 -102 rlineto
          69 -372 -50 callsubr
        </CharString>
        <CharString name="adieresismacron.1">
          -105 callgsubr
          503 534 rmoveto
          22 102 rlineto
          -584 hlineto
          -22 -102 rlineto
          69 -372 -50 callsubr
        </CharString>
        <CharString name="adotaccent">
          -51 -107 callgsubr
          338 1052 -66 callsubr
        </CharString>
        <CharString name="adotaccent.1">
          -105 callgsubr
          62 275 -66 callsubr
        </CharString>
        <CharString name="adotbelow">
          -51 -107 callgsubr
          38 -518 -96 callsubr
        </CharString>
        <CharString name="adotbelow.1">
          -105 callgsubr
          -222 -1295 -96 callsubr
        </CharString>
        <CharString name="adotmacron">
          -51 -107 callgsubr
          764 1311 10 callgsubr
        </CharString>
        <CharString name="adotmacron.1">
          -105 callgsubr
          505 534 10 callgsubr
        </CharString>
        <CharString name="ae">
          595 -92 callsubr
          endchar
        </CharString>
        <CharString name="aeacute">
          595 -92 callsubr
          -643 614 -75 callsubr
        </CharString>
        <CharString name="aemacron">
          595 -92 callsubr
          -228 645 -71 callgsubr
        </CharString>
        <CharString name="agrave">
          -51 -107 callgsubr
          500 934 -36 callsubr
        </CharString>
        <CharString name="agrave.1">
          40 917 635 rmoveto
          -9 -2 -17 -4 -25 vhcurveto
          -28 -163 rlineto
          -179 -32 -114 -129 -169 hhcurveto
          -167 -106 108 179 35 3 38 3 18 hvcurveto
          31 156 rlineto
          166 33 101 125 170 hhcurveto
          136 145 -98 -205 hvcurveto
          -287 428 rmoveto
          -247 -148 -160 -206 -39 hvcurveto
          -37 -196 rlineto
          -8 -38 -2 -46 -39 vvcurveto
          -239 158 -155 218 175 100 111 81 30 vhcurveto
          -52 callgsubr
          94 callsubr
          -36 -206 rlineto
          -12 hlineto
          97 -18 -114 126 -183 hhcurveto
          250 157 -36 callsubr
        </CharString>
        <CharString name="ahookabove">
          -51 -107 callgsubr
          290 1160 -64 callgsubr
        </CharString>
        <CharString name="ahookabove.1">
          -105 callgsubr
          -18 393 -64 callgsubr
        </CharString>
        <CharString name="ainvertedbreve">
          -51 -107 callgsubr
          702 939 -55 callsubr
        </CharString>
        <CharString name="ainvertedbreve.1">
          -105 callgsubr
          443 162 -55 callsubr
        </CharString>
        <CharString name="alphagreek">
          -23 callgsubr
          endchar
        </CharString>
        <CharString name="alphatonosgreek">
          -23 callgsubr
          63 1114 -27 callgsubr
        </CharString>
        <CharString name="amacron">
          -51 -107 callgsubr
          708 965 -71 callgsubr
        </CharString>
        <CharString name="amacron.1">
          -105 callgsubr
          449 188 -71 callgsubr
        </CharString>
        <CharString name="ampersand">
          241 1181 748 rmoveto
          -2 -36 -9 -65 -9 -41 -21 -106 -40 -90 -64 -86 -295 415 rcurveline
          3 2 31 13 3 2 rrcurveto
          217 96 106 109 150 vvcurveto
          160 -129 108 -195 -211 -141 -119 -163 -94 41 -86 82 -131 vhcurveto
          -2 -1 -27 -12 -3 -1 rrcurveto
          -251 -113 -122 -126 -180 vvcurveto
          -225 179 -155 271 157 138 50 95 125 vhcurveto
          88 -126 rlineto
          169 hlineto
          -156 219 103 119 55 115 28 150 rlinecurve
          8 41 10 72 3 40 rrcurveto
          -717 -650 rmoveto
          -183 -126 109 151 128 106 104 189 83 hvcurveto
          2 2 23 9 2 2 322 -460 rcurveline
          -77 -80 -124 -51 -131 hhcurveto
          -37 987 rmoveto
          100 84 75 121 111 82 -64 -90 -107 -95 -85 -169 -69 vhcurveto
          -2 -1 -22 -8 -1 -1 rrcurveto
          -67 89 -42 84 77 vvcurveto
          endchar
        </CharString>
        <CharString name="anoteleia">
          -613 247 918 101 callsubr
        </CharString>
        <CharString name="aogonek">
          -51 268 291 rmoveto
          110 85 91 178 106 callgsubr
          -143 -28 -131 -101 -153 hhcurveto
          -128 -76 75 104 hvcurveto
          555 -651 rmoveto
          17 105 rlineto
          -7 -24 -34 -3 -25 hhcurveto
          -64 -42 31 63 11 hvcurveto
          16 88 120 58 70 26 103 583 rcurveline
          10 50 9 56 54 vvcurveto
          187 -127 133 -237 -220 -142 -110 -150 -28 vhcurveto
          142 hlineto
          70 23 75 66 139 hhcurveto
          172 64 -104 -102 -20 -3 -23 -2 -12 hvcurveto
          -13 -71 rlineto
          -289 hlineto
          -266 -137 -117 -172 -18 hvcurveto
          -2 -17 0 -16 -13 vvcurveto
          -182 143 -108 173 163 105 89 72 36 vhcurveto
          10 hlineto
          -18 -113 -87 -52 -96 -47 -21 -120 rlinecurve
          -128 -23 92 -65 104 hhcurveto
          63 40 14 7 18 hvcurveto
          endchar
        </CharString>
        <CharString name="aogonek.1">
          40 917 636 rmoveto
          -12 -3 -20 -3 -19 vhcurveto
          -28 -163 rlineto
          -190 -34 -121 -118 -160 hhcurveto
          -169 -104 110 177 33 3 38 3 20 hvcurveto
          31 156 rlineto
          183 36 113 108 155 hhcurveto
          163 118 -127 -176 hvcurveto
          -21 -995 rmoveto
          18 105 rlineto
          -6 -19 -30 -5 -25 hhcurveto
          -63 -41 31 63 11 hvcurveto
          16 88 121 58 70 26 185 1046 rcurveline
          -41 callgsubr
          -36 -206 rlineto
          -12 hlineto
          123 -22 -141 100 -152 hhcurveto
          -226 -164 -139 -227 -44 hvcurveto
          -37 -196 rlineto
          -7 -32 -3 -43 -48 vvcurveto
          -234 153 -160 223 137 129 80 112 39 vhcurveto
          12 hlineto
          -26 -148 rlineto
          0 vlineto
          -85 -50 -95 -47 -22 -120 rrcurveto
          -128 -22 89 -65 105 hhcurveto
          63 35 16 6 12 hvcurveto
          endchar
        </CharString>
        <CharString name="approxequal">
          -35 815 600 -6 callgsubr
        </CharString>
        <CharString name="approxequal.uc">
          -35 844 756 -6 callgsubr
        </CharString>
        <CharString name="aring">
          -51 -107 callgsubr
          438 1017 -69 callgsubr
        </CharString>
        <CharString name="aring.1">
          -105 callgsubr
          179 240 -69 callgsubr
        </CharString>
        <CharString name="aringacute">
          -51 -107 callgsubr
          437 1015 2 callgsubr
        </CharString>
        <CharString name="aringacute.1">
          -105 callgsubr
          178 238 2 callgsubr
        </CharString>
        <CharString name="aringbelow">
          -51 -107 callgsubr
          129 -678 -69 callgsubr
        </CharString>
        <CharString name="aringbelow.1">
          -105 callgsubr
          -42 -1455 -69 callgsubr
        </CharString>
        <CharString name="asciicircum">
          -353 805 798 rmoveto
          -153 568 rlineto
          -148 hlineto
          -348 -568 rlineto
          134 hlineto
          268 446 rlineto
          8 hlineto
          112 -446 rlineto
          endchar
        </CharString>
        <CharString name="asciitilde">
          13 851 492 rmoveto
          164 110 137 149 15 hvcurveto
          -129 hlineto
          -92 -17 -58 -65 -80 -158 -51 256 -223 hhcurveto
          -165 -114 -141 -153 -8 hvcurveto
          129 hlineto
          110 17 67 55 72 154 49 -256 226 hhcurveto
          endchar
        </CharString>
        <CharString name="asterisk">
          -154 915 695 rmoveto
          71 92 -271 193 314 110 -44 109 -302 -139 61 327 -115 16 -32 -331 -252 216 -72 -92 270 -193 -313 -110 44 -109 302 138 -61 -325 116 -17 31 330 rlineto
          endchar
        </CharString>
        <CharString name="asterisk.uc">
          1 1031 443 rmoveto
          -305 204 368 136 -49 117 -351 -172 88 375 -129 14 -45 -379 -282 240 -83 -106 308 -206 -372 -136 50 -118 352 173 -88 -374 129 -14 47 379 279 -239 rlineto
          endchar
        </CharString>
        <CharString name="at">
          563 1067 276 -46 callgsubr
        </CharString>
        <CharString name="at.uc">
          563 1072 396 -46 callgsubr
        </CharString>
        <CharString name="atilde">
          -51 -107 callgsubr
          541 940 -95 callsubr
          endchar
        </CharString>
        <CharString name="atilde.1">
          -105 callgsubr
          282 163 -95 callsubr
          endchar
        </CharString>
        <CharString name="austral">
          -35 397 508 rmoveto
          86 186 rlineto
          293 hlineto
          21 -186 rlineto
          -87 675 rmoveto
          11 hlineto
          42 -376 rlineto
          -227 hlineto
          592 -117 rmoveto
          20 117 rlineto
          -251 hlineto
          -74 558 rlineto
          -157 hlineto
          -271 -558 rlineto
          -248 hlineto
          -20 -117 rlineto
          211 hlineto
          -86 -178 rlineto
          -157 hlineto
          -21 -117 rlineto
          121 hlineto
          -192 -395 rlineto
          159 hlineto
          183 395 rlineto
          465 hlineto
          44 -395 rlineto
          150 hlineto
          -52 395 rlineto
          123 hlineto
          21 117 rlineto
          -160 hlineto
          -23 178 rlineto
          endchar
        </CharString>
        <CharString name="b">
          -72 callgsubr
          endchar
        </CharString>
        <CharString name="backslash">
          -445 561 -289 104 callsubr
        </CharString>
        <CharString name="backslash.uc">
          -445 585 -153 104 callsubr
        </CharString>
        <CharString name="baht">
          -35 667 634 rmoveto
          166 -21 69 -88 -116 vvcurveto
          -165 -139 -93 -184 -16 vhcurveto
          -309 -3 rmoveto
          90 507 rlineto
          184 hlineto
          -89 -507 rlineto
          10 1101 rmoveto
          184 hlineto
          -82 -463 rlineto
          -184 hlineto
          388 452 rmoveto
          109 -24 46 -63 -97 vvcurveto
          -141 -99 -90 -134 -28 vhcurveto
          117 -59 rmoveto
          139 33 134 126 181 vvcurveto
          130 -71 139 -217 30 vhcurveto
          24 136 rlineto
          -124 hlineto
          -23 -130 rlineto
          -332 hlineto
          -241 -1365 rlineto
          332 hlineto
          -26 -149 rlineto
          124 hlineto
          26 150 rlineto
          317 15 181 156 237 vvcurveto
          175 -98 99 -147 28 vhcurveto
          endchar
        </CharString>
        <CharString name="bar">
          -445 313 -306 105 callsubr
        </CharString>
        <CharString name="bar.uc">
          -445 336 -172 105 callsubr
        </CharString>
        <CharString name="bdotaccent">
          -72 callgsubr
          33 1229 -78 callgsubr
        </CharString>
        <CharString name="bdotbelow">
          -72 callgsubr
          116 -651 -96 callsubr
        </CharString>
        <CharString name="becyrillic">
          -19 326 622 rmoveto
          203 42 113 92 154 hhcurveto
          166 108 -121 -169 -15 0 -50 -6 -32 hvcurveto
          -22 -113 rlineto
          -195 -38 -104 -111 -161 hhcurveto
          -177 -107 120 175 46 4 33 7 33 hvcurveto
          373 527 rmoveto
          -159 -95 -65 -110 -58 hvcurveto
          -7 hlineto
          72 255 103 112 230 6 74 3 rcurveline
          198 5 92 54 45 132 rrcurveto
          -144 hlineto
          -18 -37 -51 -19 -100 -3 -69 -2 rcurveline
          -378 -12 -133 -207 -94 -507 -18 -97 rcurveline
          -14 -71 -3 -50 -42 vvcurveto
          -245 166 -162 244 259 148 151 246 50 vhcurveto
          25 123 rlineto
          9 44 3 49 31 vvcurveto
          262 -161 156 -216 vhcurveto
          endchar
        </CharString>
        <CharString name="betagreek">
          56 68 -346 rmoveto
          143 hlineto
          97 546 rlineto
          7 hlineto
          -122 39 119 -95 180 hhcurveto
          280 167 216 250 156 -81 140 -145 33 hvcurveto
          1 8 rlineto
          152 49 101 128 204 vvcurveto
          194 -154 128 -210 -262 -136 -147 -298 -53 vhcurveto
          335 -933 rmoveto
          -187 -113 127 162 18 2 20 4 19 hvcurveto
          99 561 rlineto
          246 44 97 96 155 hhcurveto
          160 75 -87 -145 -172 -99 -95 -194 hvcurveto
          -100 hlineto
          -21 -130 rlineto
          73 hlineto
          197 112 -124 -164 -191 -112 -141 -192 hvcurveto
          endchar
        </CharString>
        <CharString name="bitcoin">
          -35 303 190 rmoveto
          80 449 rlineto
          257 hlineto
          166 90 -65 -121 -168 -126 -95 -274 hvcurveto
          -18 987 rmoveto
          239 hlineto
          151 55 -73 -87 -155 -123 -99 -248 hvcurveto
          -147 hlineto
          406 -43 rmoveto
          160 37 103 131 146 vvcurveto
          132 -89 96 -142 28 vhcurveto
          36 207 rlineto
          -108 hlineto
          -35 -199 rlineto
          -130 hlineto
          33 199 rlineto
          -107 hlineto
          -36 -199 rlineto
          -140 hlineto
          -219 -1231 rlineto
          143 hlineto
          -35 -198 rlineto
          108 hlineto
          35 198 rlineto
          132 hlineto
          -35 -198 rlineto
          108 hlineto
          36 203 rlineto
          257 31 161 164 196 vvcurveto
          135 -86 87 -151 29 vhcurveto
          endchar
        </CharString>
        <CharString name="blinebelow">
          -72 callgsubr
          482 -741 -71 callgsubr
        </CharString>
        <CharString name="braceleft">
          -445 258 596 1 callsubr
        </CharString>
        <CharString name="braceleft.uc">
          -445 279 712 1 callsubr
        </CharString>
        <CharString name="braceright">
          -445 545 574 3 callgsubr
        </CharString>
        <CharString name="braceright.uc">
          -445 566 690 3 callgsubr
        </CharString>
        <CharString name="bracketleft">
          -445 425 1437 79 callgsubr
        </CharString>
        <CharString name="bracketleft.uc">
          -445 446 1553 79 callgsubr
        </CharString>
        <CharString name="bracketright">
          -445 261 1437 79 callsubr
        </CharString>
        <CharString name="bracketright.uc">
          -445 282 1553 79 callsubr
        </CharString>
        <CharString name="breve">
          -174 412 1480 -76 callgsubr
          endchar
        </CharString>
        <CharString name="breveacutecmb">
          -96 1430 -5 callgsubr
          211 94 rmoveto
          116 hlineto
          338 350 rlineto
          -156 hlineto
          endchar
        </CharString>
        <CharString name="breveacutecmb.short">
          -66 1728 -37 callgsubr
          107 10 rmoveto
          117 hlineto
          223 206 rlineto
          -144 hlineto
          endchar
        </CharString>
        <CharString name="brevebelowcmb">
          -365 -118 19 callsubr
        </CharString>
        <CharString name="brevecmb">
          -81 1480 -76 callgsubr
          endchar
        </CharString>
        <CharString name="brevecmb.short">
          -66 1737 -73 callsubr
          endchar
        </CharString>
        <CharString name="brevecyrillic">
          -161 422 1479 -87 callgsubr
        </CharString>
        <CharString name="brevecyrillic.short">
          -58 1742 -82 callsubr
          endchar
        </CharString>
        <CharString name="brevegravecmb">
          -96 1430 -5 callgsubr
          357 94 rmoveto
          -176 350 rlineto
          -144 hlineto
          212 -350 rlineto
          endchar
        </CharString>
        <CharString name="brevegravecmb.short">
          -66 1728 -37 callgsubr
          249 10 rmoveto
          -103 206 rlineto
          -137 hlineto
          131 -206 rlineto
          endchar
        </CharString>
        <CharString name="brevehookabovecmb">
          -96 1430 rmoveto
          -116 98 -97 83 callgsubr
          -72 -63 -102 -22 callsubr
          -14 -19 vvcurveto
          183 341 rmoveto
          -15 -86 rlineto
          9 20 31 4 23 hhcurveto
          70 36 -25 -50 -48 -42 -40 -72 -23 hvcurveto
          38 -77 rlineto
          108 33 68 77 92 vvcurveto
          95 -66 50 -126 -28 -27 -4 -7 -18 vhcurveto
          endchar
        </CharString>
        <CharString name="brevehookabovecmb.short">
          -66 1728 -37 callgsubr
          57 128 rmoveto
          3 11 19 4 23 hhcurveto
          65 31 -19 -41 -29 -28 -32 -35 -9 hvcurveto
          45 -65 rlineto
          73 22 52 63 69 vvcurveto
          80 -61 43 -119 -19 -24 -5 -5 -17 vhcurveto
          endchar
        </CharString>
        <CharString name="brevetildecmb">
          -96 1430 -5 callgsubr
          454 129 rmoveto
          105 68 100 105 9 hvcurveto
          -96 hlineto
          -68 -9 -29 -44 -46 -79 -7 150 -144 hhcurveto
          -102 -69 -87 -118 -11 hvcurveto
          96 hlineto
          68 8 26 43 50 85 5 -149 146 callsubr
        </CharString>
        <CharString name="brevetildecmb.short">
          -50 1712 19 callgsubr
        </CharString>
        <CharString name="brokenbar">
          -445 508 792 rmoveto
          113 645 rlineto
          -136 hlineto
          -113 -645 rlineto
          -59 -1098 rmoveto
          119 671 rlineto
          -136 hlineto
          -118 -671 rlineto
          endchar
        </CharString>
        <CharString name="bullet">
          -154 539 248 72 callgsubr
        </CharString>
        <CharString name="bullet.uc">
          -154 565 395 72 callgsubr
        </CharString>
        <CharString name="c">
          -88 151 383 -90 callgsubr
          endchar
        </CharString>
        <CharString name="cacute">
          -88 151 383 -90 callgsubr
          431 838 -75 callsubr
        </CharString>
        <CharString name="caron">
          -174 1017 1593 -79 callsubr
        </CharString>
        <CharString name="caroncmb">
          521 1593 -79 callsubr
        </CharString>
        <CharString name="caroncmb.short">
          588 1731 -85 callgsubr
          endchar
        </CharString>
        <CharString name="carondotaccentcmb">
          -66 1590 49 callgsubr
        </CharString>
        <CharString name="carondotaccentcmb.short">
          586 1731 50 callgsubr
        </CharString>
        <CharString name="ccaron">
          -88 151 383 -90 callgsubr
          902 1210 -79 callsubr
        </CharString>
        <CharString name="ccedilla">
          -65 callsubr
          endchar
        </CharString>
        <CharString name="ccedillaacute">
          -65 callsubr
          121 1705 -75 callsubr
        </CharString>
        <CharString name="ccircumflex">
          -88 151 383 -90 callgsubr
          251 838 -79 callgsubr
          endchar
        </CharString>
        <CharString name="cdotaccent">
          -88 151 383 -90 callgsubr
          476 956 -66 callsubr
        </CharString>
        <CharString name="cedi">
          -35 332 864 rmoveto
          47 236 139 125 176 11 -192 -1092 rcurveline
          -141 39 -85 121 187 vvcurveto
          42 8 90 6 32 vhcurveto
          877 304 rmoveto
          2 6 1 12 17 vvcurveto
          186 -134 143 -195 40 vhcurveto
          23 132 rlineto
          -124 hlineto
          -21 -120 -262 -2 -212 -174 -60 -308 rlinecurve
          -48 -249 rlineto
          -5 -28 -5 -74 -54 vvcurveto
          -261 137 -174 213 -46 vhcurveto
          -27 -154 rlineto
          124 hlineto
          25 142 233 1 199 121 45 201 rlinecurve
          4 15 2 21 1 7 rrcurveto
          -148 hlineto
          -32 -153 -118 -70 -162 -5 194 1096 rcurveline
          120 -28 75 -82 12 -128 rrcurveto
          1 -8 -1 -10 -12 vvcurveto
          endchar
        </CharString>
        <CharString name="cedilla">
          -174 267 -145 -28 callsubr
        </CharString>
        <CharString name="cedillacmb">
          -161 -145 -28 callsubr
        </CharString>
        <CharString name="cent">
          -35 194 537 rmoveto
          -203 110 -141 177 -43 vhcurveto
          -42 -239 rlineto
          120 hlineto
          40 225 rlineto
          4 hlineto
          210 157 110 165 29 hvcurveto
          -148 hlineto
          -78 -19 -85 -67 -137 77 callsubr
          189 33 3 33 8 42 hvcurveto
          22 121 rlineto
          191 33 117 105 154 hhcurveto
          163 89 -108 -95 hvcurveto
          -2 0 -10 -1 130 callsubr
          0 11 2 vvcurveto
          145 -101 131 -177 39 vhcurveto
          46 256 rlineto
          -119 hlineto
          -44 -245 rlineto
          -1 -1 0 -1 hhcurveto
          -227 -3 -165 -132 -42 -246 -26 -151 rcurveline
          -9 -53 -4 -56 -39 vvcurveto
          endchar
        </CharString>
        <CharString name="checyrillic">
          -10 894 hmoveto
          -43 callgsubr
          endchar
        </CharString>
        <CharString name="chigreek">
          -42 550 212 rmoveto
          121 -404 rlineto
          -114 34 46 -50 109 hhcurveto
          30 28 2 6 24 hvcurveto
          22 121 rlineto
          -2 -17 -14 -3 -21 hhcurveto
          -60 -33 26 82 -25 hvcurveto
          -140 459 526 712 rlineto
          -158 hlineto
          -413 -559 rlineto
          -8 hlineto
          -117 390 rlineto
          136 -41 -44 43 -110 hhcurveto
          -31 -27 -2 -6 -24 hvcurveto
          -22 -121 rlineto
          3 17 15 2 14 hhcurveto
          73 26 -28 -103 32 hvcurveto
          135 -440 -528 -708 rlineto
          159 hlineto
          414 558 rlineto
          endchar
        </CharString>
        <CharString name="circumflex">
          -174 353 1222 -79 callgsubr
          endchar
        </CharString>
        <CharString name="circumflexacutecmb">
          -137 1222 20 callgsubr
        </CharString>
        <CharString name="circumflexacutecmb.short">
          36 callgsubr
          243 -17 rmoveto
          120 hlineto
          265 230 rlineto
          -168 hlineto
          endchar
        </CharString>
        <CharString name="circumflexbelowcmb">
          -456 -393 -63 callsubr
          endchar
        </CharString>
        <CharString name="circumflexcmb">
          -130 1221 -79 callgsubr
          endchar
        </CharString>
        <CharString name="circumflexcmb.short">
          36 callgsubr
          endchar
        </CharString>
        <CharString name="circumflexgravecmb">
          -137 1222 rmoveto
          133 hlineto
          204 7 callsubr
          123 26 callsubr
          461 -103 rmoveto
          -167 346 rlineto
          -139 hlineto
          205 -346 rlineto
          endchar
        </CharString>
        <CharString name="circumflexgravecmb.short">
          36 callgsubr
          462 -21 rmoveto
          -178 234 rlineto
          -163 hlineto
          225 -234 rlineto
          endchar
        </CharString>
        <CharString name="circumflexhookabovecmb">
          -137 1222 -56 callsubr
        </CharString>
        <CharString name="circumflexhookabovecmb.short">
          36 callgsubr
          210 127 rmoveto
          3 10 18 3 22 hhcurveto
          66 31 -20 -40 -30 -31 -34 -39 -9 hvcurveto
          46 -65 rlineto
          79 24 53 64 70 vvcurveto
          78 -61 43 -121 -16 -22 -3 -4 -19 vhcurveto
          endchar
        </CharString>
        <CharString name="circumflextildecmb">
          -138 1222 -56 callgsubr
        </CharString>
        <CharString name="circumflextildecmb.short">
          -122 1502 -15 callsubr
        </CharString>
        <CharString name="colon">
          -610 232 801 102 callsubr
          55 -74 -68 -57 -55 -74 vhcurveto
          -124 -691 102 callsubr
          54 -74 -68 -57 -54 -74 vhcurveto
          endchar
        </CharString>
        <CharString name="colon.uc">
          -613 266 1017 rmoveto
          -70 56 -54 69 74 55 54 70 74 -55 55 -74 -69 -56 -55 -74 vhcurveto
          -117 -688 rmoveto
          -70 56 -54 69 73 56 54 70 74 -56 55 -73 -69 -56 -55 -74 vhcurveto
          endchar
        </CharString>
        <CharString name="coloncurrency">
          -35 902 1259 rmoveto
          1 11 11 0 11 hhcurveto
          47 46 -4 -8 42 hvcurveto
          -533 -1066 -47 33 -38 43 -24 53 rlinecurve
          9 492 rmoveto
          41 238 122 143 171 53 -377 -755 rcurveline
          44 6 67 9 47 vhcurveto
          902 854 rmoveto
          -118 hlineto
          -61 -122 -50 12 -57 7 -57 1 rlinecurve
          51 102 rlineto
          -119 hlineto
          -53 -106 -284 -30 -207 -187 -63 -353 rlinecurve
          -30 -169 rlineto
          -9 -57 -6 -76 -52 vvcurveto
          -72 14 -66 25 -57 vhcurveto
          -202 -405 rlineto
          119 hlineto
          149 298 34 -41 41 -36 46 -28 rlinecurve
          -96 -193 rlineto
          118 hlineto
          73 147 rlineto
          -26 70 76 -14 80 hhcurveto
          45 66 4 8 40 hvcurveto
          23 132 rlineto
          -7 -37 -66 -4 -46 hhcurveto
          -69 -64 10 20 -56 hvcurveto
          endchar
        </CharString>
        <CharString name="comma">
          -620 103 -401 rmoveto
          315 570 rlineto
          -195 hlineto
          -249 -570 rlineto
          endchar
        </CharString>
        <CharString name="commaaccent">
          -174 390 -453 -30 callsubr
        </CharString>
        <CharString name="commabelowcmb">
          -113 -448 -30 callsubr
        </CharString>
        <CharString name="copyright">
          579 912 -64 rmoveto
          393 294 258 373 42 hvcurveto
          12 104 rlineto
          4 27 1 35 24 vvcurveto
          375 -289 299 -421 -387 -294 -255 -353 -40 vhcurveto
          -12 -105 rlineto
          -3 -31 -2 -29 -34 vvcurveto
          -391 281 -297 421 vhcurveto
          -589 680 rmoveto
          24 1 36 3 27 vhcurveto
          12 108 rlineto
          286 32 242 224 331 hhcurveto
          338 265 -237 -339 -23 -1 -16 -3 -23 hvcurveto
          -12 -108 rlineto
          -322 -35 -256 -208 -330 hhcurveto
          -344 -243 227 344 hvcurveto
          283 -34 rmoveto
          -176 120 -112 178 148 114 77 118 22 vhcurveto
          -113 hlineto
          -54 -14 -61 -37 -88 hhcurveto
          -130 -63 76 136 24 2 16 5 31 hvcurveto
          15 83 rlineto
          127 21 79 78 114 hhcurveto
          107 64 -74 -66 1 hvcurveto
          -6 108 11 vlineto
          127 -1 -105 108 -177 hhcurveto
          -174 -113 -101 -173 -31 hvcurveto
          -18 -106 rlineto
          -6 -38 -4 -38 -31 vvcurveto
          endchar
        </CharString>
        <CharString name="cruzeiro">
          -35 411 803 rmoveto
          308 53 189 149 255 hhcurveto
          85 81 -14 -23 65 hvcurveto
          24 132 rlineto
          27 -70 -96 11 -89 hhcurveto
          -330 -242 -187 -388 -69 hvcurveto
          -30 -169 rlineto
          -10 -57 -5 -76 -52 vvcurveto
          -307 254 -186 292 46 66 4 8 40 vhcurveto
          23 132 rlineto
          -7 -37 -67 -4 -45 hhcurveto
          -38 -36 3 6 -34 hvcurveto
          61 350 rlineto
          150 27 74 86 118 hhcurveto
          28 24 -3 -5 14 hvcurveto
          25 123 rlineto
          5 -16 -19 3 -20 hhcurveto
          -93 -69 -38 -104 -51 hvcurveto
          -7 hlineto
          26 127 rlineto
          -125 hlineto
          -116 -658 rlineto
          -122 57 -78 109 162 vvcurveto
          44 7 70 8 49 vhcurveto
          endchar
        </CharString>
        <CharString name="currency">
          -35 363 655 rmoveto
          143 111 114 137 137 111 -114 -143 -142 -111 -114 -137 -137 -111 114 142 vhcurveto
          519 -512 rmoveto
          98 70 -126 181 rlineto
          66 65 45 87 102 vvcurveto
          56 -14 61 -23 47 vhcurveto
          233 165 -69 101 -233 -165 rlineto
          66 -65 -78 38 -94 hhcurveto
          -58 -62 -14 -25 -48 hvcurveto
          -136 199 -99 -72 138 -199 rlineto
          -62 -64 -37 -82 -97 vvcurveto
          -57 13 -62 23 -48 vhcurveto
          -215 -154 68 -99 216 153 rlineto
          -63 64 78 -37 99 hhcurveto
          50 57 9 21 44 hvcurveto
          endchar
        </CharString>
        <CharString name="d">
          40 630 1064 -100 callsubr
          endchar
        </CharString>
        <CharString name="dagger">
          -154 972 977 rmoveto
          21 116 rlineto
          -295 hlineto
          48 272 rlineto
          -122 hlineto
          -47 -272 rlineto
          -295 hlineto
          -20 -116 rlineto
          294 hlineto
          -114 -646 rlineto
          122 hlineto
          114 646 rlineto
          endchar
        </CharString>
        <CharString name="daggerdbl">
          -154 899 560 rmoveto
          20 116 rlineto
          -293 hlineto
          30 172 30 172 rlineto
          294 hlineto
          20 116 rlineto
          -293 hlineto
          40 229 rlineto
          -122 hlineto
          -40 -229 141 callgsubr
          -30 -172 -30 -172 141 callgsubr
          -40 -229 rlineto
          122 hlineto
          40 229 rlineto
          endchar
        </CharString>
        <CharString name="dblgrave">
          -174 683 1221 -44 callgsubr
        </CharString>
        <CharString name="dblgravecmb">
          85 1221 -44 callgsubr
        </CharString>
        <CharString name="dblgravecmb.short">
          123 1512 rmoveto
          -64 callsubr
          385 hmoveto
          -64 callsubr
          endchar
        </CharString>
        <CharString name="dcaron">
          191 1388 1434 rmoveto
          -92 -484 rlineto
          106 hlineto
          138 484 rlineto
          -910 -370 -100 callsubr
          endchar
        </CharString>
        <CharString name="dcircumflexbelow">
          40 630 1064 -100 callsubr
          -783 -1029 -63 callsubr
          endchar
        </CharString>
        <CharString name="dcommaaccent">
          40 630 1064 -100 callsubr
          -440 -1084 -30 callsubr
        </CharString>
        <CharString name="dcroat">
          43 917 636 rmoveto
          -9 -2 -17 -4 -25 vhcurveto
          -28 -163 rlineto
          -179 -32 -114 -129 -169 hhcurveto
          -167 -106 108 179 35 3 38 3 18 hvcurveto
          31 156 rlineto
          166 33 101 125 170 hhcurveto
          136 145 -98 -205 hvcurveto
          -87 -459 rmoveto
          -52 callgsubr
          210 1187 rlineto
          164 hlineto
          21 117 rlineto
          -164 hlineto
          140 callgsubr
          -148 hlineto
          -23 -133 rlineto
          -230 96 callsubr
          230 hlineto
          -61 -346 rlineto
          -12 hlineto
          97 -18 -114 126 -183 hhcurveto
          -247 -148 -160 -206 -39 hvcurveto
          -37 -196 rlineto
          -8 -38 -2 -46 -39 vvcurveto
          -239 158 -155 218 175 100 111 81 30 vhcurveto
          endchar
        </CharString>
        <CharString name="ddotaccent">
          40 630 1064 -100 callsubr
          157 1013 -78 callgsubr
        </CharString>
        <CharString name="ddotbelow">
          40 630 1064 -100 callsubr
          -516 -867 -96 callsubr
        </CharString>
        <CharString name="decyrillic">
          85 12 callsubr
        </CharString>
        <CharString name="decyrillic.1">
          -2 1019 369 rmoveto
          38 215 rlineto
          525 92 -153 368 -395 hhcurveto
          -78 -76 -12 -34 -77 hvcurveto
          -25 -132 rlineto
          33 84 76 14 77 hhcurveto
          270 93 -226 -296 8 hvcurveto
          46 callsubr
          162 116 -109 -188 -4 hvcurveto
          -25 -5 -37 -5 -30 vhcurveto
          -15 -85 66 callgsubr
        </CharString>
        <CharString name="degree">
          -424 506 826 rmoveto
          152 124 124 154 153 -124 123 -152 -155 -123 -123 -153 -154 124 -124 154 hvcurveto
          -1 114 rmoveto
          -85 -73 76 87 89 73 74 85 87 71 -73 -90 -89 -72 -74 -86 hvcurveto
          endchar
        </CharString>
        <CharString name="deltagreek">
          -30 542 -17 rmoveto
          265 165 162 296 52 hvcurveto
          10 53 5 45 37 vvcurveto
          177 -80 121 -207 135 vhcurveto
          -137 89 -41 46 61 vvcurveto
          72 61 48 107 112 126 -38 -65 93 vhcurveto
          22 129 rlineto
          59 -68 -133 44 -146 hhcurveto
          -204 -112 -110 -147 -94 56 -66 104 -68 hvcurveto
          -1 -4 rlineto
          -2 -4 0 -2 hhcurveto
          -220 -159 -159 -275 -48 hvcurveto
          -10 -57 -4 -45 -39 vvcurveto
          -285 188 -122 212 vhcurveto
          11 130 rmoveto
          -134 -134 81 208 31 4 38 8 48 hvcurveto
          236 41 123 97 156 hhcurveto
          146 133 -75 -212 -29 -4 -35 -8 -47 hvcurveto
          -228 -38 -116 -113 -177 hhcurveto
          endchar
        </CharString>
        <CharString name="dieresis">
          -174 495 1228 -101 callsubr
        </CharString>
        <CharString name="dieresisacutecmb">
          -96 1323 3 callsubr
        </CharString>
        <CharString name="dieresisacutecmb.short">
          152 1743 -23 callsubr
          endchar
        </CharString>
        <CharString name="dieresisbelowcmb">
          -259 -315 -101 callsubr
        </CharString>
        <CharString name="dieresiscaroncmb">
          169 1523 rmoveto
          101 hlineto
          306 376 101 callgsubr
          -207 -275 rlineto
          -3 hlineto
          -116 275 rlineto
          -128 hlineto
          15 -673 -50 callsubr
        </CharString>
        <CharString name="dieresiscaroncmb.short">
          627 1941 27 callsubr
        </CharString>
        <CharString name="dieresiscmb">
          17 1225 -101 callsubr
        </CharString>
        <CharString name="dieresiscmb.short">
          -37 21 callsubr
          endchar
        </CharString>
        <CharString name="dieresisgravecmb">
          -93 35 callgsubr
        </CharString>
        <CharString name="dieresisgravecmb.short">
          -65 1944 rmoveto
          249 -201 rlineto
          141 hlineto
          -215 201 rlineto
          -147 -367 -101 callgsubr
          endchar
        </CharString>
        <CharString name="dieresismacroncmb">
          519 1598 rmoveto
          22 102 rlineto
          -584 hlineto
          -22 -102 rlineto
          69 -372 -50 callsubr
        </CharString>
        <CharString name="dieresismacroncmb.short">
          571 1884 -22 callgsubr
        </CharString>
        <CharString name="dieresistonosgreek">
          9 399 1320 -39 callsubr
        </CharString>
        <CharString name="divide">
          -35 522 926 41 callsubr
        </CharString>
        <CharString name="divide.uc">
          -35 538 1091 41 callsubr
        </CharString>
        <CharString name="djecyrillic">
          63 816 -58 rmoveto
          -115 -20 -68 -67 -102 hhcurveto
          -30 -29 50 callsubr
          22 41 -7 32 33 callgsubr
          109 621 rlineto
          9 52 10 -18 callgsubr
          -109 -76 -116 -52 vhcurveto
          -11 hlineto
          57 312 rlineto
          253 hlineto
          21 117 rlineto
          -252 hlineto
          140 callgsubr
          -145 80 callsubr
          -145 hlineto
          -21 -117 rlineto
          145 hlineto
          -209 -1184 rlineto
          146 -18 callsubr
          109 57 callgsubr
          157 63 -107 -123 -45 -9 -55 -4 -27 hvcurveto
          endchar
        </CharString>
        <CharString name="dlinebelow">
          40 630 1064 -100 callsubr
          -150 -957 -71 callgsubr
        </CharString>
        <CharString name="dollar">
          -35 390 -132 rmoveto
          120 hlineto
          21 110 rlineto
          -2 11 10 0 10 hhcurveto
          282 203 144 251 209 -139 80 -195 82 hvcurveto
          -9 4 -9 5 -6 1 105 507 rcurveline
          106 -32 78 -76 10 -101 rrcurveto
          1 -8 -1 -8 -9 vvcurveto
          123 hlineto
          0 0 18 3 vvcurveto
          187 -128 107 -164 36 vhcurveto
          28 137 rlineto
          -121 hlineto
          -24 -120 rlineto
          -1 -21 0 -1 hhcurveto
          -246 -202 -139 -231 -181 132 -99 143 -63 hvcurveto
          12 -6 22 -8 12 -6 -111 -547 rcurveline
          -132 36 -82 98 105 vvcurveto
          3 0 6 1 6 vhcurveto
          -133 hlineto
          -2 -10 0 -13 -11 vvcurveto
          -150 109 -145 214 -45 vhcurveto
          497 365 rmoveto
          -162 -140 -102 -197 vhcurveto
          -21 hlineto
          107 524 4 -2 6 -2 5 -2 rlinecurve
          137 -57 99 -62 -135 vvcurveto
          -543 669 rmoveto
          169 156 81 139 vhcurveto
          13 hlineto
          -99 -480 -5 3 -12 5 -5 2 rlinecurve
          -118 55 -69 57 108 vvcurveto
          endchar
        </CharString>
        <CharString name="dotaccent">
          -174 585 1349 -66 callsubr
        </CharString>
        <CharString name="dotaccentcmb">
          95 1339 -66 callsubr
        </CharString>
        <CharString name="dotaccentcmb.short">
          129 1581 -78 callgsubr
        </CharString>
        <CharString name="dotbelowcmb">
          -189 45 callgsubr
          endchar
        </CharString>
        <CharString name="dotlessi">
          -33 callgsubr
          endchar
        </CharString>
        <CharString name="dotlessj">
          -605 478 1047 rmoveto
          65 callgsubr
          endchar
        </CharString>
        <CharString name="dotmacroncmb">
          521 1598 10 callgsubr
        </CharString>
        <CharString name="dotmacroncmb.short">
          129 1578 31 callsubr
        </CharString>
        <CharString name="dzecyrillic">
          -108 239 -100 callgsubr
          endchar
        </CharString>
        <CharString name="dzhecyrillic">
          40 478 hmoveto
          107 callgsubr
          129 hlineto
          50 285 rlineto
          337 hlineto
          185 1047 53 callsubr
          endchar
        </CharString>
        <CharString name="e">
          -61 545 -17 -4 callsubr
        </CharString>
        <CharString name="eacute">
          -61 545 -17 -106 callsubr
          -286 614 -75 callsubr
        </CharString>
        <CharString name="ebreve">
          -61 545 -17 -106 callsubr
          -417 873 -76 callgsubr
          endchar
        </CharString>
        <CharString name="ecaron">
          -61 545 -17 -106 callsubr
          185 986 -79 callsubr
        </CharString>
        <CharString name="ecedilla">
          -61 -34 callsubr
          endchar
        </CharString>
        <CharString name="ecedillabreve">
          -59 -34 callsubr
          -12 1964 -76 callgsubr
          endchar
        </CharString>
        <CharString name="ecircumflex">
          -61 545 -17 -106 callsubr
          -466 614 -79 callgsubr
          endchar
        </CharString>
        <CharString name="ecircumflexacute">
          -61 545 -17 -106 callsubr
          -473 615 20 callgsubr
        </CharString>
        <CharString name="ecircumflexbelow">
          -61 545 -17 -106 callsubr
          -752 -1000 -63 callsubr
          endchar
        </CharString>
        <CharString name="ecircumflexdotbelow">
          -61 545 -17 -106 callsubr
          -466 614 -79 callgsubr
          -316 -1828 -96 callsubr
        </CharString>
        <CharString name="ecircumflexgrave">
          -61 545 -17 -106 callsubr
          -473 615 rmoveto
          133 hlineto
          204 7 callsubr
          123 26 callsubr
          461 -103 rmoveto
          -167 346 rlineto
          -139 hlineto
          205 -346 rlineto
          endchar
        </CharString>
        <CharString name="ecircumflexhookabove">
          -61 545 -17 -106 callsubr
          -473 615 -56 callsubr
        </CharString>
        <CharString name="ecircumflextilde">
          -61 545 -17 -106 callsubr
          -474 615 -56 callgsubr
        </CharString>
        <CharString name="ecyrillic">
          -88 0 callgsubr
          endchar
        </CharString>
        <CharString name="edblgrave">
          -61 545 -17 -106 callsubr
          -251 614 -44 callgsubr
        </CharString>
        <CharString name="edieresis">
          -61 545 -17 -106 callsubr
          -319 618 -101 callsubr
        </CharString>
        <CharString name="edotaccent">
          -61 545 -17 -106 callsubr
          -241 732 -66 callsubr
        </CharString>
        <CharString name="edotbelow">
          -61 545 -17 -106 callsubr
          -485 -838 -96 callsubr
        </CharString>
</ttFont>
